<svg width="1565" height="712" fill="none" xmlns="http://www.w3.org/2000/svg">
  <path fill="none" d="M1 1h1563.11v709.275H1z"/>
  <path fill="none" d="M1 1h1563.11v709.275H1z"/>
  <path d="M368.218 709.24c-6-2.245-7.678-4.444-6.253-8.192.66-1.737 1.929-3.157 2.818-3.157.89 0 4.785 2.046 8.655 4.548 3.871 2.502 8.604 5.117 10.518 5.812l3.48 1.264-4.281.093c-2.355.051-5.81.315-7.677.585-1.868.271-5.135-.158-7.26-.953Zm-13.617-11.525c-1.13-.632-3.013-.845-4.186-.473-1.476.468-2.616-.229-3.708-2.271-.868-1.62-2.422-3.237-3.455-3.592-2.37-.815-7.337-8.863-10.101-16.366-1.397-3.79-3.274-6.409-5.504-7.677-3.955-2.25-4.239-3.271-1.177-4.242 3.503-1.112 4.155-7.287 1.206-11.428-1.407-1.976-2.148-4.296-1.724-5.401.501-1.304-.88-3.592-4.224-6.999-4.22-4.3-5-5.863-5.189-10.394-.122-2.933-.837-6.073-1.587-6.978-.946-1.139-1.139-5.229-.628-13.315.553-8.763.231-14.171-1.294-21.709-2.264-11.195-3.421-32.052-2.833-51.081.126-4.06-.4-9.634-1.169-12.387-1.872-6.703-10.484-15.165-21.128-20.758-7.613-4.001-8.684-5.026-11.66-11.171-1.802-3.721-5.247-9.283-7.654-12.359-2.408-3.076-5.025-7.594-5.817-10.039-2.513-7.761-6.943-15.559-9.962-17.538-1.607-1.053-3.44-3.791-4.073-6.084-1.025-3.711-.755-4.747 2.452-9.409 3.478-5.054 3.519-5.26 1.169-5.875-5.775-1.51-3.346-9.228 7.019-22.309 6.89-8.693 8.908-15.316 6.999-22.967-.727-2.916-1.378-5.966-1.447-6.778-.068-.812-.586-1.476-1.15-1.476-.565 0-.456-1.065.241-2.367 1.073-2.006.802-2.579-1.778-3.755-3.76-1.713-9.438-.019-9.46 2.823-.027 3.407-1.525 3.658-6.466 1.083-2.647-1.38-5.396-2.508-6.109-2.508-.713 0-3.487-1.887-6.164-4.193-2.677-2.306-5.532-4.719-6.344-5.362-.812-.642-1.476-2.393-1.476-3.891 0-1.498-1.043-3.667-2.318-4.821-1.275-1.153-2.927-3.942-3.671-6.197-.978-2.963-1.71-3.742-2.642-2.81-1.946 1.946-4.827 1.577-11.819-1.516-3.656-1.616-7.464-4.377-8.985-6.513-1.452-2.04-4.227-4.528-6.165-5.531-3.2-1.655-4-1.642-8.66.138l-5.135 1.961-15.754-7.634c-9.691-4.696-17.212-9.175-19.542-11.639-3.612-3.82-3.729-4.234-2.527-8.969 1.101-4.338.914-5.68-1.48-10.627-1.508-3.114-4.801-7.897-7.319-10.629-2.518-2.732-4.293-5.43-3.943-5.995.35-.566-1.424-4.378-3.942-8.472-2.86-4.65-4.878-9.632-5.379-13.278-.643-4.673-1.392-6.103-3.763-7.183-2.513-1.145-3.216-.999-4.655.967-2.027 2.768-1.451 5.691 3.031 15.375 1.821 3.936 3.703 9.77 4.182 12.965.479 3.194 1.894 7.814 3.145 10.265 2.962 5.806 1.049 5.704-3.622-.194-2.755-3.478-3.499-5.386-2.951-7.567.584-2.329.009-3.451-2.854-5.568-4.343-3.211-5.262-5.282-3.667-8.262.93-1.738.504-3.645-1.859-8.306-2.399-4.735-2.9-7.028-2.306-10.544.97-5.747-1.608-10.948-6.415-12.94-2.775-1.149-3.732-2.435-4.297-5.776-.4-2.364-1.166-6.021-1.703-8.127-.558-2.191-.517-4.112.095-4.49.589-.364.204-1.985-.856-3.601-1.56-2.381-1.667-3.508-.562-5.933.75-1.646 1.033-3.527.629-4.181-.404-.654.603-2.607 2.237-4.34 1.635-1.734 3.81-5.191 4.836-7.684 1.025-2.492 4.184-7.112 7.02-10.266 2.836-3.154 6.432-8.68 7.99-12.279 2.163-4.996 3.431-6.548 5.36-6.564 1.389-.01 2.452.644 2.362 1.456-.376 3.384 2.299 2.342 5.304-2.066 1.772-2.599 2.728-4.902 2.124-5.118-.603-.217-1.096-1.194-1.096-2.173 0-.978-2.445-4.155-5.434-7.059-4.956-4.817-5.275-5.456-3.627-7.277 1.336-1.475 1.493-2.558.602-4.149-1.565-2.797.905-9.059 3.582-9.084 1.106-.011 1.422-.387.743-.886-1.524-1.119-2.214-3.661-2-7.364.342-5.914-.952-8.387-5.349-10.224-2.371-.991-5.99-3.082-8.042-4.647-2.051-1.565-4.654-2.845-5.783-2.845-1.13 0-6.265-1.075-11.41-2.389-8.275-2.112-9.733-2.196-12.599-.72-5.94 3.056-12.232 4.302-14.798 2.929-1.924-1.03-4.024-.393-11.346 3.437-4.942 2.585-10.846 5.101-13.12 5.591-2.273.491-6.624 2.147-9.669 3.681-8.635 4.351-21.006 8.738-24.427 8.662-2.209-.05-.716-1.018 5.16-3.348 9.985-3.96 20.246-9.117 21.195-10.652 1.169-1.892-1.369-2.57-4.416-1.181-2.245 1.022-3.628.926-6.217-.43l-3.33-1.745 3.622-1.874c4.096-2.118 5.384-4.514 4.443-8.263-.911-3.63 4.113-6.299 14.938-7.931 5.816-.877 10.237-2.337 13.214-4.364 5.25-3.573 4.347-6.274-1.312-3.93-2.68 1.11-4.631 1.122-8.599.054-4.822-1.298-4.994-1.484-2.837-3.06 3.61-2.64 11.073-4.227 15.977-3.398 3.103.524 5.645.157 8.254-1.192l3.77-1.95-2.482-2.641C61.986 64.1 60.87 62.6 60.87 62.218c0-1.096 7.11-3.287 10.665-3.287 1.775 0 6.64-1.285 10.81-2.855 4.171-1.57 13.795-3.713 21.385-4.763 12.312-1.703 14.919-1.723 24.151-.193 5.692.944 13.538 2.07 17.435 2.502 3.898.432 10.796 1.803 15.331 3.047 10.53 2.89 17.389 2.854 29.153-.15 5.195-1.326 10.445-2.094 11.668-1.706 1.222.388 3.3.128 4.618-.577 1.816-.972 3.224-.854 5.815.486 2.341 1.21 5.23 1.556 9.164 1.095 4.15-.485 7.784.018 13.09 1.812 4.039 1.365 8.525 2.483 9.969 2.483 2.558 0 2.566.043.333 1.687-2.191 1.612-2.197 1.725-.14 2.522 1.184.458 5.294.505 9.133.104 6.934-.725 6.994-.704 8.928 3.035l1.946 3.764 2.527-3.169c1.452-1.82 4.903-3.884 8.112-4.85 4.852-1.46 6.324-1.455 11.196.037 3.44 1.054 7.556 1.437 10.639.992 3.926-.567 5.749-.214 8.31 1.61 3.234 2.303 3.323 2.304 6.191.08 1.601-1.24 4.895-2.807 7.319-3.483 5.806-1.617 7.775-5.064 4.288-7.506-2.465-1.727-2.357-1.858 4.123-5.037 4.834-2.37 7.01-2.909 7.952-1.966.942.942.933 1.978-.035 3.786-1.649 3.08.404 7.738 2.976 6.751.924-.355 2.458-.347 3.408.018 1.492.572 1.468 1.058-.176 3.566-4.541 6.931 5.64 4.967 12.532-2.417 2.802-3.002 7.144-3.912 11.213-2.35 2.628 1.008 2.382 1.834-1.97 6.606-5.187 5.686-7.841 6.85-15.63 6.85-3.765 0-8.21.815-10.281 1.886-2.867 1.483-4.265 1.606-6.526.576-4.215-1.921-5.683-.322-2.659 2.896l2.581 2.748-5.149 1.461c-2.833.804-7.542 1.54-10.465 1.635-4.239.137-5.316.598-5.323 2.273-.006 1.434-2.068 2.943-6.496 4.753-14.347 5.865-26.518 16.44-22.112 19.212.826.519 2.136 2.391 2.913 4.16.894 2.036 2.617 3.456 4.699 3.873 1.809.362 6.477 2.229 10.375 4.148 3.897 1.92 8.681 3.837 10.629 4.262 5.365 1.169 5.412 1.293 2.914 7.632-2.138 5.423-2.181 6.197-.525 9.401.993 1.92 2.456 3.472 3.252 3.449 3.87-.112 7.498-3.683 9.753-9.6 2.149-5.638 3.128-6.69 9.297-9.985 9.103-4.862 12.888-9.651 11.88-15.028-.657-3.503-.316-4.325 2.682-6.459 1.889-1.346 4.39-4.565 5.558-7.155 2.611-5.79 6.806-7.797 13.88-6.64 6.273 1.026 13.692 5.008 14.588 7.832.368 1.159.063 3.24-.679 4.625-1.122 2.098-.91 2.984 1.27 5.305l2.618 2.786 4.275-2.215c2.351-1.219 6.119-3.596 8.374-5.283l4.099-3.068.963 2.604c.529 1.431.68 3.34.334 4.242-.346.901-.077 2.67.598 3.931.759 1.418.818 3.023.155 4.208-.748 1.336-.248 3.366 1.652 6.712 2.724 4.795 2.724 4.798.332 6.473-3.146 2.205-1.127 4.542 2.326 2.694 3.431-1.836 7.357-1.597 9.779.594 3.579 3.24.603 7.115-8.899 11.585-10.335 4.863-14.941 5.826-28.43 5.945-9.961.088-11.28.406-20.964 5.048-5.684 2.725-10.335 5.422-10.335 5.993 0 2.437 1.791 2.225 8.663-1.025 4.048-1.916 9.267-3.446 11.752-3.446 4.246-.001 4.401.13 3.075 2.607-.768 1.435-2.424 3.441-3.681 4.459-1.975 1.599-2.091 2.274-.854 4.988 1.854 4.07 6.697 6.029 12.49 5.051l4.578-.772-3.52 2.428c-1.936 1.336-5.125 2.775-7.087 3.199-1.961.424-5.992 1.993-8.958 3.487-3.01 1.516-6.034 2.319-6.847 1.817-1.869-1.156.104-2.889 6.177-5.426 5.401-2.257 4.537-4.654-1.283-3.562-2.267.425-9.619 3.194-16.337 6.154-10.487 4.619-12.316 5.838-12.927 8.618-.75 3.416-3.31 5.032-12.311 7.771-2.871.873-6.592 2.984-8.268 4.691-1.675 1.707-4.884 4.262-7.13 5.679-2.246 1.416-4.397 3.898-4.779 5.514-.63 2.665-.776 2.728-1.565.675-1.478-3.845-3.705-.086-3.833 6.472-.131 6.719-3.537 11.302-11.006 14.811-7.658 3.598-18.555 12.101-20.763 16.2-1.949 3.62-2.031 5.03-.83 14.333 1.121 8.679 1.054 10.857-.421 13.708-1.101 2.13-2.385 3.147-3.454 2.737-2.534-.972-5.634-11.401-4.765-16.031.603-3.217.203-4.436-2.194-6.688-1.932-1.814-3.715-2.504-5.23-2.023-1.266.401-4.843-.36-7.954-1.694-4.766-2.043-6.287-2.214-9.69-1.091-2.307.761-4.6 2.567-5.35 4.214-1.117 2.451-1.857 2.766-4.941 2.103-1.995-.429-5.062-1.514-6.817-2.41-4.32-2.207-6.739-2.053-11.592.737-2.264 1.302-6.882 3.793-10.264 5.536-3.887 2.003-6.556 4.282-7.256 6.196-.609 1.665-2.787 8.156-4.84 14.423l-3.732 11.397 1.906 7.356c3.503 13.515 8.375 17.561 18.528 15.384 7.653-1.642 12.25-4.968 13.939-10.087 1.073-3.251 2.231-4.326 5.696-5.288 5.214-1.449 7.392-1.502 9.394-.231 1.653 1.049 1.072 2.775-6.328 18.796-5.077 10.993-4.712 11.976 3.987 10.721 7.926-1.143 15.17-.265 16.016 1.94.33.86-.206 6.661-1.192 12.891-1.764 11.146-1.751 11.396.788 15.503 1.419 2.296 4.079 4.95 5.912 5.898 2.926 1.513 3.844 1.509 7.525-.029 5.85-2.444 9.026-2.185 13.089 1.065 3.249 2.6 3.708 2.673 6.261 1 1.516-.993 3.583-3.453 4.594-5.468 2.281-4.543 6.123-7.736 9.35-7.771 1.349-.014 3.7-1.355 5.226-2.979 3.098-3.298 8.554-4.372 5.887-1.159-2.238 2.696-3.517 11.369-2.075 14.064 1.201 2.244 1.298 2.231 3.483-.468 1.556-1.922 1.87-3.154 1.019-4.004-2.028-2.029-1.418-3.715 2.357-6.505 3.919-2.898 6.951-2.6 10.333 1.013 2.479 2.65 15.719 6.231 19.513 5.279 5.778-1.45 21.391 8.043 27.257 16.573 2.793 4.062 11.717 8.149 15.64 7.164 8.072-2.025 19.138 6.061 21.725 15.877.771 2.923 1.933 5.646 2.582 6.05 1.724 1.074-.858 5.315-6.5 10.683-3.605 3.429-4.466 4.906-3.452 5.92 1.014 1.014 2.681.125 6.684-3.565 5.823-5.366 7.765-5.911 10.682-2.994 1.774 1.774 1.72 2.135-.712 4.724-1.448 1.542-3.471 2.837-4.494 2.878-1.079.043-.643.561 1.037 1.232 2.307.921 3.511.662 5.905-1.273 6.236-5.038 7.702-5.28 13.241-2.185 3.602 2.011 5.044 3.543 4.862 5.163-.505 4.504.557 5.501 3.68 3.455 2.482-1.626 4.184-1.703 12.488-.566 8.832 1.209 9.989 1.691 14.226 5.929 3.146 3.146 6.685 5.215 11.13 6.507 5.969 1.735 6.617 2.264 7.7 6.284 1.569 5.829-.269 12.297-5.243 18.441-2.124 2.624-4.728 6.477-5.787 8.562-1.058 2.084-3.308 5.174-5 6.867-2.865 2.864-3.024 3.581-2.31 10.382 1.395 13.288-5.105 38.079-11.374 43.38-2.041 1.726-3.788 2.132-7.024 1.631-2.661-.413-4.63-.147-5.15.695-.463.749-3.042 2.329-5.731 3.511-2.69 1.183-6.693 3.691-8.897 5.573-3.815 3.259-3.943 3.62-2.659 7.51 1.48 4.485.483 9.795-2.689 14.324-1.026 1.465-1.865 3.956-1.865 5.536 0 1.581-1.232 4.519-2.738 6.529s-4.412 6.611-6.457 10.225c-5.03 8.89-8.055 10.431-15.35 7.816-6.33-2.269-9.706-2.54-9.706-.779 0 .664 1.262 1.781 2.804 2.484 1.542.703 3.946 3.564 5.341 6.357 2.078 4.161 2.298 5.605 1.215 7.982-1.678 3.682-8.092 6.773-14.055 6.773-5.281 0-6.591 1.292-4.767 4.7 1.126 2.104.369 5.489-1.809 8.084-.176.21-2.025-.5-4.109-1.577-4.974-2.572-6.735-.934-4.221 3.928 1.022 1.977 2.967 3.946 4.32 4.376 2.327.738 2.352.902.461 2.992-1.102 1.218-1.674 3.066-1.272 4.112.431 1.124-.531 3.552-2.357 5.946-2.968 3.892-3.011 4.161-1.108 7.065 1.088 1.661 2.785 3.329 3.772 3.708 3.557 1.365 4.146 6.028 1.434 11.344-2.717 5.326-3.134 10.666-1.031 13.2 1.912 2.304-4.521 6.792-7.414 5.173Zm-87.044-511.534c3.156-6.594 9.028-11.505 13.757-11.505 3.404 0 3.444.552.328 4.514l-2.451 3.116 2.514 2.036c2.026 1.64 3.071 1.782 5.381.73 1.576-.718 3.192-2.333 3.591-3.589.542-1.708 1.424-2.108 3.503-1.586 1.925.484 3.13.07 3.922-1.345 2.4-4.289-3.707-9.773-8.203-7.367-3.216 1.722-7.419-1.703-6.522-5.316.332-1.338-.352-3.669-1.536-5.232-2.441-3.222-6.155-3.561-14.284-1.305-2.923.812-6.256 1.439-7.407 1.395-1.151-.045-1.784.418-1.407 1.029.378.61.256 1.121-.269 1.135-.526.015-2.278 1.043-3.895 2.285l-2.939 2.258 3.301 1.255c2.58.981 4.101.841 6.967-.641 3.368-1.742 3.992-1.741 7.668.012 2.214 1.056 5.237 1.598 6.768 1.214 1.521-.382 3.092-.167 3.491.477.407.659-1.257 1.507-3.8 1.937-6.912 1.167-10.503 4.046-15.517 12.436-4.187 7.009-4.428 7.854-2.758 9.707 1.637 1.818 2.09 1.846 4.336.275 1.38-.965 3.837-4.531 5.461-7.925Zm21.458 7.291c4.205-2.145 4.609-2.684 3.127-4.166-1.481-1.481-2.417-1.385-7.238.747-5.659 2.504-7.455 5.882-3.127 5.882 1.325 0 4.582-1.108 7.238-2.463Zm20.942-8.925c2.46-1.723 2.551-2.061.816-3.032-2.554-1.429-10.146 1.034-10.146 3.292 0 2.326 5.871 2.163 9.33-.26Zm88.699 510.037c0-.52.638-1.583 1.417-2.363.78-.779.971-1.417.426-1.417-.546 0-1.629.872-2.408 1.937-1.118 1.529-1.891 1.661-3.674.626-1.274-.739-1.583-1.326-.711-1.346.851-.02 1.218-.567.816-1.217-.771-1.247 1.256-1.587 7.087-1.189 5.204.355 5.727 1.115 2.511 3.645-2.997 2.357-5.464 2.955-5.464 1.324Zm986.354-29.642c-3.38-2.141 3.65-6.868 21.1-14.177 4.87-2.042 12.3-6.31 16.5-9.487 7.14-5.401 7.73-5.635 9.15-3.613 2.15 3.069.88 5.29-4.37 7.657-2.5 1.131-5.66 3.324-7.01 4.872-1.34 1.549-3.51 2.816-4.81 2.816-1.3 0-4.36 1.79-6.8 3.978-8.34 7.488-18.91 11.026-23.76 7.954Zm-82.66-15.343c-1.23-.778-1.3-1.578-.3-3.448.72-1.339 1.31-4.1 1.31-6.135 0-3.327.27-3.606 2.65-2.766 1.47.515 4.52 1.005 6.8 1.09 2.27.085 4.54.231 5.04.326 1.96.367-3.27 6.322-7.97 9.077-5.6 3.282-5.37 3.225-7.53 1.856Zm136.48-10.328c-.41-.411.56-1.777 2.16-3.036 2.41-1.896 2.69-2.697 1.64-4.666-1.53-2.849.74-5.906 5.98-8.079 4.06-1.683 5.09-5.098 4-13.341-.75-5.671-.66-6.025 1.17-4.514 1.43 1.187 1.79 2.682 1.27 5.409-.56 2.988-.05 4.541 2.44 7.503 2.69 3.2 3.49 3.548 5.59 2.426 2.08-1.117 2.33-1.015 1.67.698-.42 1.103-.77 2.214-.77 2.469 0 .255-1.72 1.348-3.84 2.429-2.11 1.081-6.23 3.94-9.15 6.353-4.75 3.925-9.64 7.096-10.94 7.096-.26 0-.81-.336-1.22-.747Zm-124.9-15.254c-2.48-2.648-2.94-2.75-5.33-1.184-3.05 1.995-8.77.829-13.36-2.721-2.44-1.894-2.61-2.504-1.35-4.861 1.08-2.012 1.11-3.422.14-5.555-.72-1.573-1.3-3.897-1.3-5.166 0-2.861-1.86-2.998-3.4-.249-.63 1.131-1.49 1.718-1.9 1.305-.42-.414.95-2.695 3.04-5.07 5.13-5.846 3.13-7.432-3.65-2.892-2.92 1.956-5.5 4.093-5.73 4.749-.23.656-1.64-1.368-3.12-4.498-1.61-3.394-4.39-6.804-6.89-8.45-3.75-2.472-5.03-2.676-12.24-1.958-10.57 1.052-20.77 3.659-27.44 7.015-3.04 1.526-8.96 3.088-13.53 3.567-4.47.469-11.57 2.151-15.79 3.739-6.45 2.427-8.29 2.682-11.55 1.604-4.39-1.447-6.21-4.429-3.37-5.517 1.02-.394 2.89-3.104 4.14-6.023 2-4.672 2.11-6.126.92-12.163-.98-4.994-1.01-9.722-.1-17.411.69-5.805.95-11.698.59-13.095-.37-1.397.2-4.817 1.27-7.6 1.87-4.907 2.32-5.228 14.99-10.595 7.19-3.043 14.55-5.534 16.35-5.534 4.88 0 10.93-4.645 14.26-10.956 2.06-3.901 3.49-5.385 4.72-4.907 3.45 1.333 4.13 1.071 3.87-1.487-.17-1.645.53-2.841 1.94-3.287 1.22-.386 3.46-2.537 4.99-4.78 1.57-2.295 4.79-4.882 7.38-5.92 4.31-1.731 4.74-1.705 7.08.427 4.33 3.933 7.4 5.081 8.86 3.317.71-.858.96-1.898.54-2.311-1.35-1.352 4.84-9.114 7.86-9.859 1.63-.401 4.96-1.733 7.41-2.961 3.82-1.915 5.17-2.042 9.45-.892 9.23 2.479 9.54 2.884 6.11 8.074-4.42 6.674-3.25 9.284 7.58 16.91 5.01 3.521 9.73 6.191 10.5 5.935.77-.257 3.2-2.952 5.4-5.991 3.01-4.14 4.17-7.151 4.65-12.02.69-6.916 3.99-16.535 5.69-16.535.56 0 1.85 2.845 2.86 6.321 1.01 3.477 3.12 7.534 4.7 9.016 3.69 3.464 5.83 13.151 4.18 18.874-1.1 3.792-.89 4.401 2.87 8.268 2.23 2.295 5.76 7.894 7.85 12.441 2.08 4.547 5.83 10.981 8.34 14.297l4.56 6.03-1.3 9.316c-.94 6.759-2.39 11.264-5.3 16.411-4.45 7.884-11.1 15.407-14.61 16.521-1.26.4-4.19 3.359-6.5 6.575-2.31 3.217-4.72 5.848-5.35 5.848-.64 0-3.34 2.76-6.01 6.134-4.45 5.626-5.26 6.141-9.9 6.228-3.55.067-6.28 1.032-9.2 3.259l-4.15 3.163-2.72-2.896Zm-575.91-24.833c-2.501-2.501-2.919-3.78-2.36-7.225.526-3.242.025-5.148-2.222-8.455-1.595-2.348-2.901-4.847-2.901-5.553 0-.706-2.088-4.083-4.641-7.505-3.945-5.288-4.756-7.4-5.406-14.091-1.148-11.805-4.918-24.582-9.984-33.843-2.491-4.553-4.883-10.464-5.317-13.137-.923-5.686 1.386-14.149 6.658-24.402l3.507-6.821-1.971-5.933c-1.102-3.318-1.641-7.245-1.222-8.913.49-1.952-.037-4.277-1.525-6.734-1.25-2.065-3.107-6.677-4.126-10.25-1.361-4.772-3.258-7.875-7.149-11.693-7.486-7.344-8.459-10.235-6.136-18.226 4.729-16.268-.38-25.756-12.861-23.885-4.859.729-5.045.638-5.732-2.795-.527-2.634-1.954-4.183-5.539-6.012-4.659-2.377-6.652-2.386-12.373-.056-1.299.529-6.614 2.363-11.81 4.075-7.814 2.575-10.161 2.907-13.562 1.92-3.222-.934-5.936-.693-12.53 1.116-6.814 1.87-9.284 2.07-12.965 1.054-7.682-2.121-20.88-14.017-22.757-20.512-1.453-5.026-10.488-16.74-13.563-17.584-1.954-.536-2.194-.951-.998-1.723 1.203-.777.994-1.17-.886-1.662-2.985-.78-3.282-3.219-.395-3.245 1.767-.015 1.809-.184.295-1.163-1.115-.721-1.239-1.151-.335-1.163.938-.011.581-1.468-1.028-4.196-2.266-3.839-2.313-4.347-.582-6.259 5.284-5.839 6.442-18.41 2.425-26.331-1.918-3.781-.685-9.004 3.407-14.434 1.541-2.045 4.549-7.02 6.685-11.055 3.736-7.06 12.064-16.875 14.318-16.875 2.495 0 10.543-8.652 10.543-11.333 0-6.055 3.619-12.091 9.521-15.878 3.171-2.035 6.887-5.514 8.257-7.732 2.804-4.536 3.201-4.684 6.466-2.408 1.281.893 4.465 1.981 7.075 2.419 3.981.668 5.884.187 11.811-2.982 10.198-5.454 16.5-6.816 28.169-6.088 7.696.48 11.16.173 14.891-1.32 5.493-2.198 10.243-.897 8.957 2.454-.386 1.006-.15 2.496.524 3.309.85 1.023.843 2.489-.021 4.761-1.086 2.855-.845 3.705 1.844 6.512 1.702 1.775 4.747 3.559 6.769 3.963 9.492 1.898 12.191 3.128 14.151 6.446 1.436 2.431 3.319 3.679 6.431 4.263 2.42.454 5.934 1.618 7.81 2.588 3.184 1.647 3.596 1.587 6.252-.908 1.785-1.677 2.595-3.453 2.176-4.772-.367-1.156-.087-3.185.621-4.508 1.828-3.415 7.016-3.08 15.116.976 8.826 4.418 25.563 7.571 31.496 5.933 2.854-.788 5.598-.799 8.096-.031 8.161 2.508 12.34.545 13.455-6.32.37-2.281 1.001-4.146 1.404-4.146.763 0 1.163-3.429 1.273-10.925.036-2.436.612-4.429 1.28-4.429.795 0 .756-.856-.114-2.481-1.452-2.714-4.398-2.652-11.447.241-3.344 1.372-4.274 1.314-7.269-.456-3.884-2.294-7.869-2.638-9.018-.778-.855 1.383-6.894.413-10.169-1.632-2.353-1.47-4.552-5.844-4.552-9.056 0-1.231-1.196-3.081-2.657-4.111-2.263-1.593-2.394-2.044-.886-3.031.974-.638 2.978-.876 4.454-.529 1.881.443 3.611-.298 5.796-2.483 2.056-2.055 4.556-3.19 7.357-3.339 2.333-.124 5.713-1.194 7.511-2.379 3.903-2.572 12.764-1.857 19.639 1.584 9.27 4.64 17.503 4.367 20.817-.69 1.724-2.631 1.734-3.184.097-5.681-.996-1.521-5.785-5.026-10.64-7.789l-8.829-5.023 1.654-3.198c.91-1.76 1.357-3.497.993-3.861-.364-.363-.225-1.361.309-2.216.534-.855 1.075-2.241 1.202-3.08.271-1.789-1.634-1.295-11.026 2.859-5.453 2.411-6.263 3.15-5.053 4.607.792.955 2.571 1.759 3.953 1.788 1.938.04 1.479.597-2.008 2.438-4.235 2.234-4.708 2.263-7.461.459-2.355-1.543-2.662-2.26-1.547-3.605 1.108-1.334.942-1.848-.806-2.505-1.21-.455-2.77-1.586-3.467-2.515-3.383-4.509-14.116 7.353-17.237 19.051-1.466 5.49-1.417 5.776 1.341 7.857l2.863 2.159-5.252 1.083c-2.888.595-6.78.665-8.65.154-3.449-.942-7.821.478-7.821 2.541 0 .606-.804.794-1.787.417-.982-.377-2.542-.058-3.466.709-1.434 1.189-1.271 2.164 1.104 6.631 2.573 4.839 2.652 5.5 1.047 8.717-2.011 4.031-3.881 3.732-6.721-1.077-1.981-3.353-1.967-3.43.653-3.802 3.306-.469 3.519-2.574.312-3.087-7.318-1.17-11.22-5.026-11.22-11.086 0-4.729-4.384-9.942-9.7-11.535-2.763-.828-5.766-2.566-6.674-3.862-.908-1.297-3.566-3.157-5.906-4.135-2.341-.978-4.96-2.784-5.821-4.013-1.236-1.765-2.049-1.977-3.858-1.009-1.261.675-2.292 1.987-2.292 2.916 0 3.067 15.054 16.94 22.412 20.654 7.802 3.939 9.021 5.345 3.6 4.154-4.833-1.061-6.149.001-4.496 3.63 1.161 2.548.971 3.323-1.365 5.567l-2.713 2.608.617-3.519c.98-5.584-6.383-13.607-12.49-13.607-2.238 0-10.838-8.342-13.091-12.699-2.407-4.655-5.086-5.554-8.88-2.981-5.717 3.876-10.003 5.186-14.487 4.429-5.956-1.006-9.704 1.071-8.754 4.852.495 1.975.219 2.856-.894 2.856-.886 0-3.155 1.328-5.042 2.951-1.888 1.623-3.838 2.952-4.335 2.953-1.461.002-5.583 7.464-5.588 10.115-.005 2.535-4.624 7.531-9.08 9.82-1.419.729-4.722 1.326-7.34 1.326-3.603 0-5.079.593-6.067 2.44-1.294 2.418-1.333 2.412-4.36-.615-2.84-2.84-4.475-3.55-10.205-4.437-3.011-.466-3.52-7.281-1.268-16.992.963-4.151 1.435-8.803 1.05-10.337-1.119-4.459 2.385-7.089 8.245-6.188 13.533 2.078 21.449 2.193 23.305.338 2.549-2.55 3.699-10.958 2.143-15.673-1.014-3.075-2.41-4.332-6.575-5.922-6.125-2.339-6.254-4.602-.266-4.662 2.282-.023 5.573-.975 7.314-2.116 1.741-1.141 3.667-1.765 4.279-1.387 1.67 1.032 7.992-2.612 10.092-5.816 1.014-1.549 3.012-3.114 4.44-3.478 1.427-.363 5.252-3.137 8.5-6.162 4.605-4.289 7.021-5.634 10.969-6.105 4.892-.584 9.811-4.607 7.502-6.135-1.436-.949-2.635-6.668-1.835-8.751.378-.987 2.05-2.687 3.715-3.778l3.027-1.984-.777 4.86c-.674 4.218-.502 4.814 1.303 4.512 1.144-.191 3.284-1.009 4.755-1.817 2.24-1.231 2.789-1.171 3.38.368 1.012 2.638-1.802 5.739-3.745 4.127-1.073-.89-1.753-.858-2.353.112-.618 1-1.102.946-1.812-.204-.533-.863-1.241-1.297-1.572-.966-.331.331.613 2.127 2.098 3.99 2.504 3.14 2.981 3.289 6.55 2.045 3.056-1.066 4.524-.993 7.126.353 2.937 1.519 3.929 1.446 9.575-.699 4.947-1.88 6.896-2.121 9.086-1.123 2.014.918 3.506.899 5.377-.068 5.313-2.745 6.784-4.815 6.125-8.615-.978-5.631.813-7.476 5.528-5.696 3.209 1.211 4.147 1.163 5.597-.287 1.536-1.536 1.403-2.103-1.113-4.781-2.421-2.578-2.591-3.218-1.115-4.214.958-.646 4.546-.877 7.973-.514 6.273.664 14.09-1.786 12.728-3.99-1.192-1.93-8.393-2.488-14.493-1.123-5.409 1.211-6.829 1.113-10.976-.757-6.439-2.904-7.198-6.301-2.781-12.457 5.685-7.924 6.725-10.45 5.106-12.4-2.399-2.89-4.754-1.948-10.233 4.09-2.895 3.192-6.839 6.456-8.766 7.253-1.926.798-4.309 3.011-5.295 4.918-1.606 3.105-1.604 3.756.024 6.24.999 1.525 2.894 3.115 4.211 3.533 3.623 1.15 2.906 3.308-2.276 6.854-1.594 1.09-3.72 4.176-4.725 6.856-1.258 3.359-3.172 5.651-6.157 7.374-4.208 2.429-4.399 2.439-6.724.334-1.316-1.191-2.713-3.62-3.104-5.399-.39-1.778-2.164-4.975-3.941-7.104l-3.232-3.871-4.097 2.498c-2.254 1.374-5.161 2.488-6.46 2.476-3.748-.034-8.087-4.083-8.377-7.816-.144-1.855-.627-4.283-1.071-5.395-1.059-2.646 4.23-7.607 9.726-9.124 5.516-1.523 16.704-9.364 18.611-13.043.848-1.637 3.721-4.93 6.385-7.319 2.664-2.388 4.843-4.869 4.843-5.512 0-.643 2.525-2.07 5.611-3.169 3.085-1.1 8.267-3.094 11.515-4.433 3.988-1.644 8.974-2.513 15.354-2.676 11.148-.285 18.438 1.193 24.454 4.956 3.018 1.889 5.4 2.533 7.68 2.077 4.077-.815 25.815 5.922 26.72 8.283.911 2.372-5.324 4.611-10.688 3.839-2.456-.354-7.537-1.3-11.29-2.103-5.053-1.08-7.169-1.115-8.152-.132-.983.984-.492 1.71 1.893 2.796 1.771.807 3.989 2.953 4.928 4.77 2.391 4.623 10.049 8.392 14 6.89 3.796-1.443 3.77-1.898-.235-4.071-3.705-2.01-1.995-2.445 2.657-.676 3.715 1.413 7.924-.344 6.944-2.899-.459-1.196.832-2.06 4.473-2.993 7.792-1.996 8.362-2.282 7.716-3.862-2.445-5.977-2.479-5.805 1.078-5.399 1.898.217 3.285 1.029 3.127 1.83-.156.793.833 2.04 2.198 2.77 2.05 1.097 3.667.706 9.305-2.249 8.266-4.333 14.701-5.745 17.101-3.754 1.338 1.11 3.557 1.119 9.979.035 4.542-.766 8.775-1.074 9.405-.684.631.39 1.495.145 1.921-.543.93-1.506-1.644-4.923-3.053-4.053-1.701 1.052-7.287-.832-6.072-2.047 1.224-1.223 34.093 6.436 36.06 8.403 1.326 1.326 5.524-.443 5.524-2.328 0-.635-2.344-2.294-5.209-3.686-8.883-4.315-9.454-11.227-1.1-13.324 4.849-1.217 6.946.187 13.652 9.14 8.706 11.623 8.484 11.032 5.64 15.026-2.107 2.958-2.234 3.65-.772 4.212 2.769 1.062 8.695-2.656 9.529-5.98.977-3.893-.847-7.211-5.205-9.465-3.426-1.771-5.905-5.017-5.905-7.73 0-.925 1.285-1.156 3.838-.69 3.829.7 6.996-.689 15.666-6.868 1.983-1.413 5.335-2.344 8.715-2.421 6.856-.156 9.075-1.307 7.102-3.684-.774-.932-1.161-1.94-.86-2.241 1.508-1.509 20.952-4.227 25.43-3.555 4.309.646 5.643.296 9.188-2.407 2.281-1.74 4.147-3.632 4.147-4.205 0-1.443-10.321-1.314-11.22.14-1.237 2.003-2.841 1.306-2.39-1.037.381-1.979-.618-2.3-9.221-2.97-23.491-1.83-25.401-2.259-22.582-5.077 2.477-2.478 8.554-2.43 13.641.108 2.084 1.04 5.536 1.89 7.672 1.89 2.135 0 4.211.532 4.612 1.181.402.65 2.471 1.181 4.597 1.181 5.891 0 17.28 2.545 16.565 3.701-.348.563.754 1.024 2.449 1.024 1.694 0 4.783.915 6.863 2.034 2.79 1.504 6.7 2.045 15 2.078 8.92.036 11.88.494 14.47 2.236 1.78 1.205 3.24 2.528 3.23 2.94-.01.413-2.74 2.25-6.06 4.083-8.02 4.426-6.33 6.355 3.38 3.84 6.28-1.628 7.73-1.638 12.93-.093 4.27 1.268 6.94 1.431 9.83.6 2.89-.829 5.86-.65 10.9.654 5.25 1.361 7.97 1.5 11.3.575 7.6-2.11 16.95-1.514 22.37 1.426 2.69 1.462 7.67 4.166 11.05 6.01 5.99 3.268 6.25 3.304 10.4 1.441 3.48-1.56 5.42-1.69 10.55-.709 5.1.975 6.96.856 9.83-.629 2.81-1.453 3.26-2.167 2.19-3.46-2.07-2.498 5.28-3.427 14.32-1.808 4.14.742 9.39 1.482 11.67 1.646 2.27.163 6.71 1.458 9.87 2.879 4.81 2.166 8.44 2.657 22.52 3.043 13.36.367 17.62.902 20.84 2.62 3.27 1.743 7 2.187 19.4 2.308 11.41.11 16.53.652 19.91 2.107 5.46 2.348 7.65 1.487 4.68-1.843-2.14-2.394-2.13-2.398 6.12-1.578 13.82 1.373 30.41 4.398 36.02 6.571 2.93 1.131 8.5 2.446 12.38 2.921 3.89.476 9.56 2.127 12.6 3.67 4.63 2.342 6.13 2.6 9.09 1.566 4.06-1.415 6.69-.396 12.89 4.987l3.85 3.344-2.9.728c-2.91.731-10.64-1.183-13.31-3.295-.78-.62-1.88-.846-2.44-.5s-3.32-.166-6.14-1.136c-6.6-2.273-9.53-1.42-6.52 1.9 2.05 2.268 2.01 2.316-1.91 2.043-7.32-.51-5.31 1.652 5.44 5.846 5.85 2.28 10.88 4.388 11.19 4.684 1.11 1.074-2.55 2.404-5.21 1.895-2.92-.558-10.11 2.576-10.11 4.405 0 .608-1.14 2.164-2.53 3.459-2.32 2.162-2.8 2.211-5.9.606-2.91-1.502-3.84-1.518-6.63-.111-1.79.9-4.84 2.019-6.78 2.487-1.95.468-4.2 1.401-5.01 2.072-2.38 1.972 1.81 7.714 7.72 10.572 3.21 1.556 5.54 3.641 6.23 5.585.61 1.706 1.9 4.507 2.86 6.225 1.58 2.801 1.56 3.199-.13 3.849-1.24.476-1.6 1.43-1.06 2.781.45 1.131.96 3.386 1.13 5.01.17 1.624.69 3.834 1.16 4.913.6 1.403.1 2.194-1.76 2.785-2.07.658-3.47-.135-6.87-3.902-2.36-2.6-6.28-6.179-8.72-7.955-2.44-1.775-6.82-6.39-9.73-10.257-5.12-6.82-5.23-7.131-3.53-10.421.97-1.866 1.77-4.614 1.8-6.108.02-1.494.77-4.036 1.66-5.649 1.71-3.081 1.05-5.542-2.6-9.725-2.39-2.747-6.65-.688-5.58 2.697.99 3.118-2.04 4.129-5.54 1.843-1.51-.99-5-2.16-7.74-2.599-4.72-.752-5.07-.607-6.29 2.598-.71 1.867-1.01 4.819-.66 6.559.54 2.712.16 3.267-2.63 3.879-1.89.417-5.15-.076-7.79-1.183-2.91-1.216-5.66-1.583-7.63-1.022-1.69.481-7.42.918-12.73.971-8.4.084-10.02.451-12.58 2.851-1.61 1.515-3.55 5.235-4.3 8.267-.76 3.032-2.14 6.696-3.08 8.142-1.62 2.499-1.46 2.752 3.17 5.113 5.02 2.563 10.5 3.238 14.65 1.807 3.2-1.105 12.97 6.513 16.02 12.493 1.25 2.449 3.32 5.012 4.59 5.694 4.83 2.582 5.81 19.522 1.77 30.596-2.79 7.668-5.92 10.175-10.51 8.43-1.75-.667-3.36-1.212-3.58-1.212-.22 0-1.53 2.18-2.92 4.845-1.82 3.499-2.18 5.262-1.28 6.346 1.72 2.074.45 4.772-2.99 6.339-1.59.724-2.89 1.831-2.89 2.46s3.69 3.686 8.21 6.794c5.75 3.955 8.82 6.992 10.22 10.114 1.11 2.455 1.8 4.658 1.54 4.897-.27.238-2.68 1.541-5.37 2.895l-4.88 2.463-2.94-6.746c-3.29-7.551-6.11-10.587-11.08-11.925-2.51-.674-3.38-1.629-3.38-3.697 0-1.896-1.22-3.507-3.83-5.032-3.79-2.221-3.86-2.219-7.9.275-4.04 2.496-4.08 2.498-5.32.181-.69-1.286-1.25-3.151-1.25-4.146 0-.994-1-2.339-2.21-2.988-1.8-.966-2.94-.382-6.26 3.206-2.23 2.413-5.09 4.975-6.35 5.692-1.96 1.113-2.06 1.584-.71 3.21.87 1.049 3.87 3.187 6.67 4.752 4.46 2.49 5.31 2.632 6.81 1.129 1.43-1.427 2.59-1.48 6.9-.31l5.19 1.407-2.89 1.931c-5.36 3.581-7.05 5.46-7.81 8.692-.63 2.652-.26 3.45 2.12 4.535 1.59.724 4.01 3.612 5.37 6.419 1.36 2.806 4.09 6.052 6.05 7.213 4.33 2.554 5.58 5.267 3.08 6.664-2.32 1.302-1.21 3.249 1.86 3.249 3.68 0 3.7 2.194.14 14.858-4.3 15.338-8.19 20.455-18.36 24.175-4 1.465-8.88 2.752-10.82 2.86-4.53.251-8.05 2.169-11.11 6.065l-2.43 3.093-1.14-2.984c-1.48-3.893-4.87-4.872-9.74-2.811-4.47 1.889-7.41 4.901-8.6 8.796-1.06 3.485 2.7 9.616 8.93 14.548 5.11 4.05 10.85 14.212 12.19 21.606 1.18 6.431-.9 10.653-6.47 13.164-2.54 1.144-4.91 3.02-5.28 4.169-.87 2.76-6.12 6.195-7.08 4.639-.4-.648-.41-2.162-.03-3.364.38-1.201.36-3.047-.04-4.101-.59-1.517-1.23-1.653-3.1-.655-1.94 1.039-2.69.776-4.26-1.498-3.85-5.589-15.02-14.57-18.12-14.57-1.09 0-1.51 1.312-1.32 4.134.15 2.273-.32 6.706-1.03 9.85-1.17 5.123-1.05 6.061 1.15 9.035 1.35 1.825 2.79 4.654 3.2 6.287.41 1.658 3.83 5.445 7.73 8.578 6.52 5.221 7.2 6.252 9.94 14.926 1.62 5.125 2.95 9.822 2.95 10.438 0 2.003-2.47 1.192-7.62-2.506-5.32-3.823-8.72-9.87-11.56-20.56-1.23-4.641-2.58-6.631-6.41-9.448-4.7-3.456-4.84-3.758-4.46-9.475.21-3.248.75-7.852 1.18-10.23.62-3.349.11-5.749-2.24-10.63-1.67-3.467-3.65-8.793-4.4-11.834-1.66-6.795-4.01-7.933-8.16-3.956-1.71 1.644-3.45 2.99-3.85 2.99-1.88 0-4.47-4.002-3.85-5.954 1.13-3.545-5.79-15.903-9.84-17.58-2.21-.918-4.24-3.144-5.6-6.15-2.35-5.223-4.99-7.221-7.63-5.776-.96.524-4.79 1.578-8.52 2.343-6.84 1.401-9.29 3.471-8.35 7.048.34 1.317-.85 2.589-3.72 3.957-2.33 1.108-4.83 3.338-5.57 4.954-.73 1.617-2.35 3.263-3.6 3.658s-3.17 2.203-4.27 4.017c-1.1 1.814-4.39 5.129-7.3 7.367-3.99 3.063-5.23 4.776-5.03 6.931 1.16 12.594-.62 23.132-4.96 29.39-4.23 6.104-4.52 6.274-8.1 4.643-1.97-.897-3.19-2.65-3.69-5.327-.41-2.193-2.79-8.375-5.28-13.735-15.11-32.436-17.339-38.625-16.052-44.483.872-3.958-1.217-9.93-3.232-9.254-.808.272-1.483 1.245-1.5 2.163-.101 5.391-6.158 6.219-10.888 1.488l-3.135-3.134 2.697-.998c3.034-1.123 2.756-4.15-.331-3.595-1.097.197-3.607-.998-5.578-2.657s-4.039-3.016-4.595-3.016-1.35-1.069-1.765-2.375c-1.088-3.43-7.354-6.414-10.494-4.998-2.825 1.274-28.462 1.008-32.753-.34-1.546-.486-4.405-2.708-6.354-4.938-3.521-4.03-3.575-4.046-8.858-2.623-5.005 1.35-5.732 1.222-12.474-2.181-5.826-2.941-7.571-4.527-9.369-8.515-2.295-5.088-7.391-8.773-10.489-7.584-.976.375-2.116 2.235-2.533 4.135-.599 2.727.012 4.5 2.908 8.438 2.016 2.742 4.213 7.017 4.882 9.5 1.436 5.335 4.273 6.922 6.624 3.706 1.419-1.94 1.802-2.008 2.763-.487.613.971.944 2.298.735 2.947-.657 2.042 6.159 5.401 9.339 4.603 1.607-.403 5.041-3.14 7.63-6.082 4.081-4.636 5.505-4.949 4.808-1.056-.47 2.62 1.592 5.691 5.004 7.455 5.27 2.724 12.613 8.794 12.613 10.426 0 .752-1.381 2.656-3.068 4.231-1.687 1.575-4.115 4.907-5.396 7.405-3.112 6.069-12.131 14.946-15.185 14.946-3.53 0-8.781 2.981-10.871 6.171-.991 1.511-3.594 3.643-5.786 4.738-11.226 5.604-24.741 11.285-28.545 11.999-4.067.763-4.396.578-6.551-3.671-1.247-2.46-2.663-7.397-3.145-10.969-.628-4.647-1.844-7.601-4.274-10.376-1.869-2.134-3.398-4.392-3.398-5.018 0-.626-2.131-3.335-4.736-6.019-3.244-3.343-5.341-6.971-6.655-11.517-1.055-3.65-3.202-8.231-4.771-10.179-10.84-13.461-14.049-18.207-15.665-23.164-2.142-6.569-3.953-7.629-4.788-2.804l-.594 3.425-3.995-5.045c-6.157-7.773-6.933-4.24-1.153 5.25 2.735 4.491 7.095 12.417 9.689 17.613 2.593 5.197 5.956 11.093 7.472 13.104 1.561 2.069 2.756 5.304 2.756 7.459 0 4.45 1.328 7.228 6.544 13.688 2.097 2.599 4.17 6.392 4.605 8.431.558 2.614 2.838 5.347 7.739 9.278 7.448 5.974 12.275 12.21 13.473 17.407.45 1.952 2.154 3.956 4.316 5.074 3.293 1.703 4.453 1.656 14.862-.599 6.209-1.345 12.787-3.22 14.617-4.167l3.327-1.72.79 4.675c.718 4.248-.055 6.294-8.463 22.42-9.04 17.339-9.463 17.912-18.452 25.009-5.06 3.994-10.355 8.885-11.766 10.867-1.412 1.983-5.929 7.338-10.038 11.9-11.99 13.313-13.62 25.022-5.668 40.716 2.02 3.986 2.809 7.004 2.331 8.912-.399 1.586-.143 5.593.567 8.904 1.118 5.214.991 6.608-.944 10.4-2.792 5.471-5.014 7.438-12.82 11.35-3.411 1.709-6.201 3.612-6.201 4.229s-2.392 3.815-5.315 7.106c-2.923 3.291-5.315 6.519-5.315 7.173 0 .654 1.096 3.336 2.435 5.962 4.015 7.87 1.317 13.573-8.307 17.559-4.057 1.681-5.389 5.112-4.385 11.296.525 3.241.191 4.319-1.645 5.302-1.268.678-3.56 3.204-5.093 5.612-4.841 7.603-18.758 21.057-25.081 24.246-5.276 2.661-6.625 2.896-10.501 1.826-3.418-.944-6.176-.795-11.906.645-9.28 2.331-8.296 2.428-11.89-1.167Zm155.564-376.705c3.049-1.577 3.484-2.445 3.484-6.942 0-3.224-.689-5.712-1.849-6.675-1.017-.844-2.665-3.112-3.663-5.041-1.649-3.19-1.642-3.44.078-2.78 2.272.871 5.434-.177 5.434-1.802 0-.642-1.098-2.711-2.441-4.597-2.023-2.841-2.834-3.219-4.725-2.207-1.529.818-2.282.825-2.282.022 0-.659-2.108-2.274-4.685-3.588-5.702-2.909-7.731-6.132-5.952-9.455 1.346-2.515 6.154-4.277 8.207-3.008 2.769 1.711 3.585-.811 1.301-4.019-5.54-7.78-13.253-7.268-22.818 1.515-6.173 5.667-6.709 7.173-3.218 9.041 1.299.696 2.362 2.055 2.362 3.021 0 .966 2.101 4.035 4.669 6.821 5.913 6.416 6.998 9.347 6.266 16.94l-.589 6.113 8.114 4.163c4.463 2.29 8.274 4.19 8.468 4.222.195.032 1.922-.753 3.839-1.744Zm-32.538 329.91c-3.335-1.892-3.809-2.89-4.68-9.861-.696-5.571-.405-6.782 2.927-12.198 3.387-5.505 3.631-6.565 2.884-12.544-1.079-8.633.757-13.17 5.775-14.271 4.727-1.037 14.956-10.067 17.407-15.368l1.873-4.05 1.302 2.857c3.275 7.189 2.942 10.347-2.757 26.114-3.049 8.436-6.32 18.528-7.269 22.425-3.037 12.474-4.762 15.481-9.737 16.972-5.296 1.587-4.784 1.592-7.725-.076Zm581.794-20.534c-3.77-4.123-6.02-7.661-6.02-9.449 0-3.963.63-3.617 4.04 2.199 1.63 2.781 4.58 6.601 6.55 8.488 1.97 1.888 3.58 3.865 3.58 4.393 0 2.272-2.51.534-8.15-5.631Zm-526.874-1.677c0-.649.531-1.181 1.181-1.181.649 0 1.181.532 1.181 1.181 0 .65-.532 1.181-1.181 1.181-.65 0-1.181-.531-1.181-1.181Zm621.964-2.154c-.42-.674-.18-1.581.52-2.016 1.75-1.085 2.38-.222 1.2 1.673-.62 1.016-1.23 1.137-1.72.343Zm-613.697-1.91c0-.286.532-.849 1.181-1.25.65-.402 1.181-.168 1.181.52 0 .688-.531 1.251-1.181 1.251-.649 0-1.181-.234-1.181-.521Zm582.977-11.987c-1.15-2.997.31-4.048 3.57-2.565 2.81 1.28 2.87 1.476.91 2.908-2.74 2.003-3.6 1.937-4.48-.343Zm7.49-5.252c-2.31-1.426-.71-2.566 2.96-2.112 2.88.356 2.94.486.89 1.752-1.31.81-2.89.957-3.85.36Zm-55.15-4.334c-2.42-5.223-1.57-7.229.94-2.202 2.61 5.231 2.65 5.403 1.43 5.39-.49-.005-1.55-1.44-2.37-3.188Zm4.53-.838c-.06-1.245.22-1.943.62-1.55.39.392.43 1.411.09 2.263-.38.942-.66.663-.71-.713Zm96.15-11.34c-1.08-1.749-.06-2.642 2.46-2.15 1.85.36 1.87.551.2 1.933-1.33 1.101-2.08 1.162-2.66.217Zm-698.003-5.884c-.402-.65-.167-1.181.521-1.181.688 0 1.25.531 1.25 1.181 0 .649-.234 1.181-.52 1.181-.287 0-.85-.532-1.251-1.181Zm518.493-11.097c-7.48-2.356-10.87-4.546-13.81-8.918-3.36-4.994-9.51-8.775-12.65-7.778-1.27.403-3.41 2.594-4.75 4.869-2.28 3.873-2.72 4.086-6.87 3.348-2.44-.434-5.85-2.105-7.58-3.713-2.19-2.044-3.87-2.69-5.58-2.147-1.35.427-3.3.302-4.34-.279-1.63-.909-1.47-1.335 1.13-3.036 3.01-1.971 3.01-1.997 1-6.229-1.63-3.399-3.86-5.171-11.17-8.847-5.03-2.529-10.72-4.597-12.64-4.597-4.39 0-6.2-4.049-2.89-6.468 1.96-1.439 1.68-1.797-3.46-4.291-5.45-2.649-5.53-2.761-2.92-4.207 1.47-.817 3.84-1.504 5.26-1.527 2.77-.045 6.27 3.947 6.27 7.148 0 1.067 1.15 3.4 2.55 5.184 2.52 3.198 2.58 3.211 4.43.902 1.03-1.288 4.33-3.746 7.32-5.463l5.45-3.12 7.54 3.405c4.15 1.873 10.05 4.304 13.1 5.404 3.05 1.099 9.15 4.368 13.56 7.263 8.42 5.528 12.07 10.189 9.98 12.716-1.71 2.06 5 11.443 11.95 16.708 7.64 5.786 7.51 6.321-.88 3.673Zm51.4-.095c-.93-1.122-1.02-1.8-.24-1.8 1.43 0 3.09 2.241 2.27 3.06-.3.297-1.21-.27-2.03-1.26Zm-198.45-4.808c-1.71-.946-2.2-1.643-1.18-1.656 2.11-.029 5.49 1.937 4.69 2.732-.31.306-1.88-.177-3.51-1.076Zm19.97-1.56c3.35-4.704 8.59-6.717 13.44-5.161 3.53 1.134 3.58 1.229.78 1.341-1.66.066-5.53 1.715-8.6 3.664-7.02 4.447-8.71 4.494-5.62.156Zm171.37 1.615c-1.6-1.923-1.22-2.163 1.67-1.054 1.03.394 1.87 1.191 1.87 1.771 0 1.634-1.91 1.247-3.54-.717Zm5.53-1.042c-.44-1.157-.77-2.99-.73-4.074.05-1.305.46-1.007 1.21.881.63 1.569.96 3.402.73 4.074-.22.673-.77.276-1.21-.881Zm91.32 1.112c0-.286.53-.849 1.18-1.251.65-.401 1.18-.167 1.18.521 0 .688-.53 1.251-1.18 1.251-.65 0-1.18-.235-1.18-.521Zm-302.07-4.961c-.82-.344-1.18-1.111-.82-1.705.9-1.46 8.47-1.379 9.39.1.4.65.03 1.189-.82 1.198-.85.009-2.61.245-3.91.524-1.29.28-3.03.228-3.84-.117Zm17.53-.886c-2.14-2.586.33-3.373 5.89-1.875 5.61 1.509 5.59 1.745-.22 2.794-3.02.545-4.68.276-5.67-.919Zm177.33-.719c-.82-1.308-.96-2.362-.32-2.362.63 0 1.71 1.063 2.41 2.362.7 1.3.84 2.363.33 2.363-.52 0-1.61-1.063-2.42-2.363Zm7.4-1.188c-3.16-3.489-1.47-4.038 1.78-.579 1.52 1.622 2.23 2.948 1.57 2.948-.67 0-2.17-1.066-3.35-2.369Zm-221.45-.205c-4.22-.585-10.17-1.884-13.23-2.886-3.05-1.002-6.65-1.473-7.99-1.046-2.71.858-14.21-2.523-14.21-4.177 0-3.775 10.59-4.062 16.22-.439 2.1 1.353 3.75 1.443 8.19.448 4.92-1.103 5.95-.967 8.84 1.17 1.8 1.33 3.8 2.418 4.46 2.418 2.33 0 9.42 3.951 8.82 4.919-.33.542-1.24.912-2.01.822-.78-.091-4.86-.643-9.09-1.229Zm212.01-5.693c-1.18-1.299-1.61-2.362-.96-2.362.65 0 2.14 1.063 3.32 2.362 1.17 1.299 1.6 2.362.95 2.362-.64 0-2.14-1.063-3.31-2.362Zm-7.45-1.496c-.67-.808-1.56-3.061-1.98-5.007-.68-3.133-.6-3.267.66-1.174.78 1.299 2.18 3.24 3.1 4.312.98 1.136 1.22 2.239.56 2.644-.62.382-1.67.033-2.34-.775Zm-25.01-3.755-2.94-1.625 4.55-.853c2.5-.469 6.35-2.432 8.54-4.361 2.4-2.107 3.99-2.87 3.98-1.91-.03 2.402-1.48 4.252-5.89 7.509-4.61 3.403-4.4 3.37-8.24 1.24Zm-221.56-4.599c-4.34-2.472-12.16-12.036-14.71-17.981-1.37-3.206-4.52-8.487-7-11.735-2.47-3.248-5.32-7.5-6.31-9.448-1-1.949-4.03-5.67-6.74-8.268-5.7-5.478-9.21-11.235-6.82-11.194 3.1.053 11.08 4.489 14.5 8.061 9.44 9.854 11.37 11.608 15.83 14.353 4.3 2.65 6.34 5.407 6.54 8.858.04.65 1.26 2.51 2.72 4.134 1.46 1.624 4.2 4.678 6.11 6.787 1.9 2.109 3.8 5.4 4.22 7.313 1.37 6.261-3.67 11.779-8.34 9.12Zm-237.9-.78c0-.649.531-1.181 1.181-1.181s1.181.532 1.181 1.181c0 .65-.531 1.181-1.181 1.181s-1.181-.531-1.181-1.181Zm312.39-.01c-.41-.656-.41-2.226-.02-3.49.41-1.265-.08-3.542-1.08-5.068-1.65-2.51-1.63-3.036.17-5.6 1.09-1.556 2.37-5.735 2.85-9.287.6-4.382 1.77-7.349 3.66-9.234 2.57-2.578 3.22-2.692 9.02-1.593 4.97.943 6.93.827 9.64-.574 4.53-2.345 4.86-2.24 3.36 1.065-1.92 4.202-5.74 5.545-9.78 3.432-7.2-3.774-16.75 1.834-11.71 6.876 1.85 1.853 2.88 2.022 6.31 1.037 5.88-1.687 8.2-1.377 4.55.608-4.14 2.247-4.92 4.741-2.79 8.863.97 1.875 1.76 4.783 1.76 6.462 0 2.688-.28 2.902-2.36 1.788-1.3-.696-3.18-3.209-4.17-5.584-1.79-4.286-1.82-4.301-4.11-2.009-2.01 2.01-2.15 2.903-1.05 6.887 1 3.6.93 4.79-.31 5.577-2.09 1.322-3.06 1.284-3.95-.156h.01Zm162.04-6.3c-1.11-1.699-3.66-3.937-5.67-4.972-2-1.036-3.37-2.149-3.05-2.474 1.84-1.837 12.09 6.505 11.21 9.125-.26.805-1.33.084-2.49-1.679Zm-185.47-3.931c-1.78-.933-4.18-1.398-5.34-1.032-2.93.932-14.61-1.443-15.76-3.209-.92-1.405-3.63-10.058-5.07-16.226-.4-1.695 0-3.896.92-5.169 1.36-1.847 2.06-1.987 4.2-.841 2.26 1.209 2.74 1.002 3.97-1.717.78-1.7 3.36-4.084 5.74-5.297 2.51-1.284 4.93-3.689 5.79-5.759.99-2.387 2.79-3.991 5.5-4.883 2.21-.73 5.41-3.145 7.1-5.366 1.7-2.221 3.71-4.038 4.48-4.038.77 0 3.1 1.755 5.18 3.899l3.78 3.899-3.03 4.074c-3.44 4.627-3.26 8.607.64 14.083l2.36 3.315-2.94 1.928c-1.62 1.06-2.94 2.579-2.94 3.376.01 2.705-7.56 18.298-9.45 19.482-1.33.825-2.86.67-5.13-.519Zm68.61-.021c-2.44-.639-2.78-2.729-.44-2.729.89 0 3.39.353 5.55.786 3.33.665 3.58.924 1.63 1.688-2.57 1.004-3.71 1.047-6.74.255Zm188.08-15.061c0-.286.54-.849 1.19-1.251.65-.401 1.18-.167 1.18.521 0 .688-.53 1.251-1.18 1.251-.65 0-1.19-.235-1.19-.521Zm-192.22-3.203c-.94-.944-1-2.039-.18-3.568.65-1.213.87-2.715.48-3.338-1.06-1.723 1.6-5.905 3.77-5.905 1.73 0 1.73.203-.08 2.197-1.56 1.724-1.73 2.865-.8 5.304 1.87 4.931-.17 8.33-3.19 5.31Zm-593.188-3.883c0-.287.532-.85 1.181-1.251.65-.402 1.181-.167 1.181.521 0 .688-.531 1.25-1.181 1.25-.649 0-1.181-.234-1.181-.52Zm819.078-3.023c-.41-.649-.17-1.181.52-1.181.68 0 1.25.532 1.25 1.181 0 .65-.24 1.181-.52 1.181-.29 0-.85-.531-1.25-1.181Zm-811.991-11.15c0-.287.531-.85 1.181-1.251.649-.402 1.181-.167 1.181.521 0 .688-.532 1.25-1.181 1.25-.65 0-1.181-.234-1.181-.52Zm568.111-17.758c-2.26-5.255-2.56-5.491-6.02-4.73-3.46.759-3.58.666-2.29-1.753 1.08-2.004 2.07-2.401 4.61-1.843 2.45.538 4.02-.006 6.42-2.23 1.74-1.618 3.18-3.897 3.2-5.065.03-2.981 4.42 7.016 5.42 12.361.76 4.059.66 4.279-1.18 2.75-2.74-2.269-5.38.085-3.13 2.794.9 1.081 1.01 1.822.28 1.822-.67 0-2.06.32-3.09.713-1.37.526-2.47-.737-4.22-4.819Zm-215.35 2.087c-1.32-2.145-2.07-11.769-1.11-14.323 1.01-2.709 1.08-2.676 4.09 1.771 3.61 5.33 4.76 8.748 3.57 10.573-1.14 1.747-5.82 3.162-6.55 1.979Zm263.76-6.109c0-.65.53-1.51 1.18-1.911.65-.402 1.18-.199 1.18.451 0 .649-.53 1.509-1.18 1.911-.65.401-1.18.198-1.18-.451Zm185.43-.14c0-.649.23-1.181.52-1.181.28 0 .85.532 1.25 1.181.4.65.16 1.181-.52 1.181-.69 0-1.25-.531-1.25-1.181Zm-268.11-6.823c0-.505 2.37-3.561 5.26-6.791 4.25-4.734 5.28-5.403 5.32-3.447.03 1.335-1.75 4.391-3.95 6.791-3.72 4.071-6.63 5.58-6.63 3.447Zm25.58-3.152c-.43-1.121-.34-2.824.2-3.783.83-1.487 1.18-1.502 2.34-.097 1.05 1.258 1 2.153-.19 3.783-1.47 2.002-1.61 2.008-2.35.097Zm-904.449-4.602c.723-.871.966-1.934.538-2.362-.427-.427.325-.777 1.672-.777 1.866 0 2.301.561 1.83 2.362-.358 1.372-1.611 2.362-2.987 2.362-1.847 0-2.079-.348-1.053-1.585Zm912.379-.312c-.44-1.23-1.02-2.635-1.28-3.122-.26-.487.02-.886.64-.886 1.17 0 2.83 4.85 1.96 5.728-.29.283-.88-.491-1.32-1.72Zm-11.97-3.082c-1.66-1.999-.04-4.844 2.44-4.29 1.55.347 1.61.838.36 3.149-1.2 2.229-1.72 2.441-2.8 1.141Zm13.96-4.059c-1.35-1.723-2.26-3.33-2.02-3.571.96-.96 4.28 1.155 6.05 3.851 2.71 4.145-.73 3.905-4.03-.28Zm-19.41-4.572c-1.05-1.052-1.91-2.524-1.91-3.271 0-.748 1.16-.193 2.59 1.232 1.42 1.426 2.28 2.898 1.91 3.272-.37.373-1.54-.181-2.59-1.233Zm-927.087-.169c-.433-.433-.787-1.336-.787-2.008 0-.74.55-.67 1.397.178.769.768 1.123 1.672.788 2.007-.336.336-.965.256-1.398-.177Zm-6.693-1.575c0-.649.235-1.181.521-1.181.287 0 .85.532 1.251 1.181.402.65.167 1.182-.521 1.182-.688 0-1.251-.532-1.251-1.182Zm55.511-2.362c0-.649.234-1.181.521-1.181.286 0 .849.532 1.25 1.181.402.65.168 1.181-.52 1.181-.688 0-1.251-.531-1.251-1.181Zm890.149-.18c-1.19-.667-3.43-.894-4.99-.502-2.29.574-3.86-.346-8.14-4.751-6.05-6.222-7.23-8.846-5.45-12.161.68-1.281 1.24-3.927 1.24-5.88 0-6.411 4.3-6.152 7.44.449 1.75 3.657 1.76 4.442.12 8.365-1.76 4.223-1.73 4.411 1.42 7.696 2.27 2.373 3.98 3.179 5.77 2.728 1.52-.381 3.16.091 4.05 1.168 2.13 2.563 1.2 4.391-1.46 2.888Zm-897.236-7.427c0-.286.532-.849 1.181-1.251.65-.401 1.182-.167 1.182.521 0 .688-.532 1.251-1.182 1.251-.649 0-1.181-.234-1.181-.521Zm185.429-4.203c0-.65.531-1.181 1.181-1.181.649 0 1.181.531 1.181 1.181 0 .649-.532 1.181-1.181 1.181-.65 0-1.181-.532-1.181-1.181Zm-188.972-4.585c0-.65.532-1.51 1.181-1.911.65-.402 1.181-.199 1.181.451 0 .649-.531 1.509-1.181 1.911-.649.401-1.181.198-1.181-.451Zm-10.031-4.85c-.413-.67.061-.868 1.112-.465 2.046.786 2.42 1.632.721 1.632-.611 0-1.436-.525-1.833-1.167Zm187.782-.014c-.401-.65-.167-1.181.521-1.181.688 0 1.251.531 1.251 1.181s-.234 1.181-.521 1.181c-.286 0-.849-.531-1.251-1.181Zm-183.066-2.362c-.401-.65-.167-1.181.521-1.181.688 0 1.251.531 1.251 1.181 0 .649-.234 1.181-.521 1.181-.286 0-.849-.532-1.251-1.181Zm5.315 0c0-.65.235-1.181.521-1.181.286 0 .849.531 1.251 1.181.401.649.167 1.181-.521 1.181-.688 0-1.251-.532-1.251-1.181Zm-81.199-3.145c-.812-.327-1.476-1.082-1.476-1.678 0-1.703 5.214-1.264 7.747.652 2.178 1.647 2.115 1.731-1.251 1.678-1.949-.031-4.208-.324-5.02-.652Zm29.887-.669c-1.06-.593-3.4-.755-5.201-.359-1.801.395-4.571.2-6.155-.433-2.548-1.02-2.323-1.14 1.95-1.04 6.279.147 7.955-.876 6.351-3.874-1.14-2.129-.797-2.291 4.837-2.291 5.451 0 13.314 2.5 14.646 4.656.886 1.434-14.313 4.524-16.428 3.341Zm22.655.746c-1.4-1.399.34-2.837 3.432-2.837 1.857 0 2.798.556 2.495 1.476-.544 1.653-4.684 2.604-5.927 1.361Zm854.476-1.878c-3.13-3.127-.03-6.865 5.69-6.865 2.53 0 2.53.021.36 3.744-2.54 4.34-4.05 5.121-6.05 3.121Zm-844.716-.243c0-.255.797-.77 1.772-1.144.974-.374 1.771-.165 1.771.465 0 .629-.797 1.144-1.771 1.144-.975 0-1.772-.209-1.772-.465Zm-51.055-8.466c-.365-.364-2.858-.693-5.541-.73-3.701-.051-4.589-.415-3.681-1.509.878-1.057-.382-2.465-4.724-5.278-8.514-5.517-13.267-6.595-18.987-4.306-5.363 2.146-5.773 2.206-5.773.855 0-2.472 9.399-5.191 16.168-4.676 6.473.492 10.097 1.869 22.807 8.669 10.447 5.589 10.458 5.599 7.086 6.561-3.829 1.092-6.526 1.243-7.355.414Zm8.536-9.967c2.29-1.479 3.544-1.479 3.544 0 0 .65-1.196 1.173-2.658 1.163-2.149-.014-2.318-.237-.886-1.163Zm940.605-2.094c-.71-.472-1.94-2.081-2.73-3.576-1.19-2.253-1.06-3.347.72-6.401 2.75-4.717 4.61-5.305 5.51-1.743.94 3.748-1.78 12.856-3.5 11.72Zm-932.85-1.574c.788-1.276 5.238-1.42 5.236-.17 0 .487-1.325.962-2.944 1.056-1.62.093-2.651-.306-2.292-.886Zm-23.355-11.383c-1.889-2.168-1.614-5.027.483-5.027.671 0 .949 1.038.617 2.306-.331 1.268.005 2.524.748 2.791.743.267 1.038.827.655 1.245-.383.417-1.509-.174-2.503-1.315Zm6.861-9.279c-.421-1.095-.499-2.257-.174-2.582.325-.325.934.306 1.355 1.401.42 1.096.498 2.258.173 2.582-.325.325-.934-.305-1.354-1.401Zm-7.402-1.063c0-.974 1.012-1.771 2.25-1.771 1.999 0 2.053.197.478 1.771-.975.975-1.987 1.772-2.25 1.772-.263 0-.478-.797-.478-1.772Zm990.526-25.893c0-.924-1.29-3.214-2.87-5.088-3.74-4.449-2.41-7.418 2.02-4.513 3.18 2.088 4.85 6.354 3.67 9.417-.89 2.323-2.82 2.449-2.82.184Zm-916.512-7.107c0-.286.531-.849 1.181-1.251.65-.401 1.181-.167 1.181.521 0 .688-.531 1.251-1.181 1.251s-1.181-.234-1.181-.521Zm923.092-1.452c-.76-1.995 1.04-3.881 3.75-3.914 1.88-.023 1.92 2.617.06 4.47-1.92 1.925-2.91 1.781-3.81-.556Zm10.79-4.311c-2.29-3.499-5.53-3.98-12.95-1.92-3.01.837-5.09.846-6.49.029-1.14-.661-1.44-1.218-.68-1.238.76-.019 2.99-1.383 4.95-3.03 2.52-2.124 4.37-2.789 6.37-2.288 2.11.53 4.39-.485 9.19-4.091 9.34-7.021 10.19-9.235 6.39-16.737-3.65-7.2-2.63-9.518 2.77-6.324 3.94 2.324 7.64 8.982 6.57 11.789-.39 1.011.19 4.181 1.28 7.046 1.55 4.055 1.7 5.759.66 7.689-1.51 2.835-5.73 4.729-10.53 4.729-2.69 0-3.5.69-4.38 3.756l-1.07 3.755-2.08-3.165Zm-478.461-4.031c-1.41-1.41-.66-2.677 1.584-2.677 1.261 0 2.621-.531 3.022-1.181 1.098-1.776 2.97-1.42 2.26.431-.728 1.898-5.842 4.451-6.866 3.427Zm-40.274-2.044-3.544-1.622 4.725-.08c5.884-.099 10.218 1.004 9.365 2.384-.95 1.538-6.48 1.18-10.546-.682Zm-47.712-11.781c-4.726-2.42-4.949-2.722-2.481-3.368 2.955-.772 9.496.189 9.363 1.377-.046.406-.445 1.618-.886 2.693-.726 1.768-1.301 1.701-5.996-.702Zm-23.673-12.778c-1.022-2.933-.941-4.055.387-5.383 2.401-2.401 4.267-.714 4.267 3.859 0 5.402-2.963 6.372-4.654 1.524Zm-27.695.981c.838-2.183 4.432-2.553 3.709-.381-.271.812-1.376 1.648-2.457 1.857-1.37.266-1.749-.181-1.252-1.476Zm617.115-13.481c-2.16-3.036-2.22-3.596-.63-5.875 1.57-2.239 1.57-2.91-.05-6.034-2.66-5.138-2.28-5.449 2.32-1.935 2.28 1.738 6.78 3.94 9.99 4.895 6.65 1.974 8.25 3.523 4.79 4.623-1.31.415-2.38 1.526-2.38 2.469 0 1.285-.82 1.506-3.25.884-6.23-1.595-8-1.205-7.6 1.672.49 3.525-.31 3.351-3.19-.699Zm-587.522 1.388c-1.37-1.37-.853-3.659.984-4.364 1.28-.491 1.772.129 1.772 2.235 0 2.835-1.156 3.728-2.756 2.129Zm580.022-24.901c-1-1.137-3.41-5.257-5.36-9.156-1.95-3.899-7.11-11.058-11.46-15.91-4.86-5.421-7.33-9.015-6.41-9.323.83-.276 2.6.959 3.95 2.744 3.24 4.328 7.25 8.085 13.56 12.738 5.23 3.857 7.82 7.426 4.44 6.131-3.89-1.495-2.92 2.052 2.12 7.726 2.94 3.308 5.34 6.262 5.34 6.566 0 1.436-4.56.316-6.18-1.516Zm-864.266-2.067c0-.975.514-1.772 1.144-1.772.629 0 .838.797.464 1.772-.374.974-.889 1.771-1.144 1.771-.255 0-.464-.797-.464-1.771Zm-6.172-3.811-4.4-.462 8.28-8.198c4.554-4.509 8.875-8.198 9.602-8.198.768 0 .538.868-.548 2.068-2.459 2.717-.782 5.769 3.711 6.756 1.962.431 3.917 1.934 4.672 3.592 1.213 2.662 1.008 2.933-3.084 4.069-4.293 1.193-9.418 1.297-18.233.373Zm-287.79-8.474c-4.091-3.821-4.548-5.432-1.835-6.473 2.43-.932 6.914 2.107 8.614 5.838 1.784 3.915 1.752 4.062-.874 4.062-1.23 0-3.888-1.542-5.905-3.427Zm520.137-6c1.299-.641 3.856-1.704 5.681-2.363 4.022-1.451 3.355-2.997-1.732-4.014-3.489-.698-3.612-.876-1.616-2.336 1.189-.869 1.815-2.14 1.392-2.825-.432-.7.782-1.786 2.772-2.48 1.948-.679 3.542-1.759 3.542-2.4 0-2.728-2.462-7.317-3.83-7.139-3.153.411-4.613-.145-4.105-1.563.291-.812.051-2.406-.534-3.543-1.52-2.956 1.974-9.069 5.221-9.135.487-.009.753.634.591 1.43-.163.797.952 1.638 2.476 1.869l2.772.42-2.648 2.82-2.649 2.819 2.986 1.135c3.205 1.219 6.293 5.188 9.439 12.131 1.507 3.326 2.498 4.195 4.257 3.735 3.609-.944 4.037 1.502.651 3.721-2.294 1.503-2.729 2.35-1.725 3.355 1.005 1.005-.976 1.679-7.846 2.67-5.054.73-11.05 1.671-13.324 2.092-3.162.586-3.578.492-1.771-.399Zm-19.918-6.525c-.404-1.052.057-3.445 1.025-5.315 1.11-2.147 1.325-3.67.582-4.129-2.047-1.265-1.279-2.879 1.727-3.634 1.598-.401 3.523-1.474 4.279-2.384 1.573-1.896 8.849-2.245 9.941-.477.401.648-.099 2.361-1.111 3.806-1.012 1.445-1.84 4.04-1.84 5.767 0 2.634-.81 3.422-5.019 4.883-2.761.958-5.882 2.115-6.934 2.57-1.235.534-2.176.148-2.65-1.087Zm21.689-11.734c0-.286.532-.849 1.182-1.25.649-.402 1.181-.168 1.181.52 0 .688-.532 1.251-1.181 1.251-.65 0-1.182-.234-1.182-.521Zm-524.159-5.69c-1.157-1.394-1.084-2.044.368-3.249 2.4-1.992 3.591-.641 2.194 2.49-.963 2.159-1.314 2.263-2.562.759Zm-1.847-8.883c-.399-.645.066-1.83 1.033-2.633 1.92-1.593 2.321-.344.707 2.204-.617.973-1.3 1.142-1.74.429Zm-76.34-.753c0-.831 3.581-2.284 8.662-3.515 1.926-.466 3.064-.354 2.682.265-.366.592-2.138 1.373-3.938 1.736-1.8.364-4.202 1.021-5.34 1.46-1.136.44-2.066.464-2.066.054Zm701.852-13.281c-2.179-.879-1.794-2.234.689-2.421 1.191-.09 2.165.594 2.165 1.52 0 1.759-.409 1.888-2.854.901Zm-259.541-6.036c-7.474-4.076-11.046-10.338-8.881-15.566 1.025-2.475 1.056-4.03.117-5.787-1.956-3.654.596-7.937 7.121-11.952 3.1-1.907 6.194-4.511 6.877-5.787 1.892-3.535.207-9.593-3.085-11.093-1.667-.76-2.573-1.96-2.205-2.92.838-2.184-3.094-9.647-7.01-13.303-2.883-2.691-4.123-2.959-13.993-3.024-13.44-.088-15.944-.835-15.722-4.691.093-1.602.448-2.913.79-2.914.341 0 5.125-.555 10.629-1.232 7.028-.864 13.33-2.647 21.164-5.988 12.129-5.172 13.053-5.273 41.993-4.593 9.138.215 17.545-.461 28.345-2.28 10.058-1.694 17.459-2.333 21.455-1.851 3.395.409 8.311.139 11.087-.608 6.441-1.735 23.176.351 29.758 3.71 3.891 1.985 5.95 2.247 12.516 1.593 7.093-.706 7.629-.613 5.497.953-1.299.954-5.285 2.12-8.858 2.59-7.753 1.02-14.876 6.546-12.988 10.074.814 1.522.23 2.821-2.403 5.344-1.913 1.833-3.759 4.215-4.101 5.294-.823 2.59-11.264 7.413-16.441 7.592-5.75.2-6.352 1.422-1.905 3.872 2.101 1.157 5.167 3.128 6.815 4.38l2.995 2.278-2.708 1.002c-2.076.768-3.759.273-7.213-2.12-4.687-3.249-9.73-3.265-7.04-.024 1.049 1.265.797 1.756-1.167 2.27-4.389 1.147-1.284 3.416 3.556 2.599 3.081-.52 4.814-.247 5.777.914 1.146 1.382-.349 2.021-8.951 3.829-5.68 1.194-13.25 2.214-16.823 2.268-6.637.099-11.42 2.004-18.456 7.352-2.294 1.744-7.17 3.472-12.875 4.564-11.925 2.281-15.955 4.92-23.14 15.151-5.771 8.218-9.251 11.28-12.85 11.31-.974.008-4.429-1.435-7.677-3.206Zm-83.743-7.9c-2.537-1.558-5.645-4.465-6.907-6.459-2.465-3.892-4.738-4.387-11.392-2.479-2.252.646-4.78.709-5.791.143-3.497-1.957 2.82-3.882 9.856-3.003 5.351.668 6.539.478 7.163-1.148 1.254-3.267 6.992-5.609 10.182-4.155 1.964.895 3.75.87 6.258-.087 3.375-1.288 3.422-1.405 1.217-3.023-1.261-.926-2.7-1.684-3.198-1.684-.498 0-2.296-2.372-3.995-5.272-1.7-2.9-4.885-6.382-7.078-7.738-3.728-2.304-4.221-2.344-7.556-.62-2.915 1.508-4.599 1.613-9.211.578-3.104-.698-7.439-.932-9.632-.522-3.805.711-10.776-1.15-10.776-2.878 0-3.174 10.003-10.297 15.945-11.354l4.724-.84-3.377 3.597c-4.658 4.963-2.907 7.247 2.152 2.806 2.146-1.884 5.854-3.792 8.241-4.24 3.647-.684 5.21-.238 9.789 2.796 6.094 4.035 6.563 4.144 9.999 2.305 2.07-1.108 2.837-.804 5.084 2.015 1.554 1.949 5.025 4.071 8.41 5.142 5.395 1.707 5.764 2.078 5.764 5.8 0 2.79.804 4.55 2.699 5.904 7.926 5.669 7.753 5.435 6.038 8.181-2.352 3.765-4.208 4.038-9.413 1.383-3.621-1.847-5.202-2.1-7.025-1.125-2.23 1.194-2.254 1.449-.459 4.92 1.474 2.85 1.608 4.289.607 6.487-1.234 2.708-1.43 2.75-4.781 1.017-6.586-3.406-11.021-1.165-4.877 2.465 1.925 1.137 3.232 2.501 2.904 3.031-1.144 1.851-6.988.87-11.564-1.943Zm242.597 1.53c0-.541.798-.984 1.772-.984s1.772.442 1.772.984c0 .541-.798.984-1.772.984s-1.772-.443-1.772-.984ZM346.56 83.09c-2.329-1.224-4.137-1.329-7.398-.428-5.544 1.53-7.482.41-4.669-2.699 3.601-3.98 6.044-4.762 10.388-3.328 4.889 1.613 7.059 4.012 5.74 6.344-.841 1.487-1.415 1.502-4.061.111Zm234.572-.538c-1.949-1.281-4.43-2.05-5.512-1.707-1.492.472-1.823.063-1.365-1.688.703-2.687 11.08-6.565 14.588-5.452 1.223.388 4.349.069 6.946-.71 4.078-1.221 5.159-1.129 7.916.678l3.193 2.092-2.844 2.216c-2.401 1.87-6.853 3.494-17.607 6.42-.975.264-3.367-.567-5.315-1.849ZM260.471 60.505c-1.624-.257-5.58-1.646-8.791-3.088l-5.839-2.62 8.201-.59c4.51-.325 8.2-1.123 8.2-1.772 0-.65-3.189-1.466-7.086-1.814-5.146-.46-6.116-.783-3.543-1.181 4.308-.667 4.618-2.532.59-3.55-2.9-.732-2.879-.777 1.201-2.535 7.071-3.046 14.603-3.63 21.276-1.648 5.478 1.627 6.334 1.62 8.917-.073 1.827-1.197 2.911-1.397 3.005-.555.081.724.214 1.937.295 2.695.274 2.558 2.63 2.227 5.441-.765 2.603-2.77 7.114-4.097 7.104-2.09-.003.488-1.053 2.606-2.335 4.709l-2.331 3.822 3.812 1.988 3.811 1.988-6.258 2.857c-5.647 2.577-6.805 2.725-11.867 1.51-4.908-1.177-6.316-1.042-11.261 1.077-5.585 2.395-6.763 2.548-12.542 1.635Zm47.368-.833c-1.067-1.285-.626-1.917 2.131-3.06 1.919-.794 4.671-1.06 6.146-.591 2.558.812 2.499.94-1.389 3.01-4.961 2.642-5.208 2.665-6.888.642Zm325.85-5.465c2.29-1.48 3.544-1.48 3.544 0 0 .65-1.196 1.172-2.658 1.163-2.149-.015-2.318-.238-.886-1.163Zm216.727-3.277c-6.038-2.385-5.914-2.255-4.157-4.372.821-.99 1.03-1.817.463-1.838-.567-.02.033-.84 1.332-1.822 1.299-.982 2.371-2.16 2.382-2.62.041-1.747 4.85-6.354 8.248-7.902 1.948-.888 6.997-1.888 11.22-2.223 4.222-.336 9.878-.95 12.568-1.365 2.863-.442 5.196-.262 5.627.436.837 1.355-.761 1.93-9.928 3.577-9.096 1.635-14.564 4.181-18.165 8.461-3.794 4.509-3.921 7.355-.437 9.786l2.658 1.854-3.543-.053c-1.949-.03-5.67-.893-8.268-1.92Zm-618.581-3.425c-1.904-1.904-1.47-2.319 7.668-7.322 10.708-5.861 16.088-6.64 25.692-3.715l5.315 1.618-7.087 1.405c-5.795 1.149-18.077 5.256-27.776 9.288-.989.412-2.697-.16-3.812-1.274Zm85.327-1.528c0-.63-1.461-1.982-3.248-3.008l-3.248-1.864 4.349.684c3.09.486 4.629.196 5.315-1 .816-1.423 8.333-4.27 11.331-4.292.504-.004.092 1.586-.914 3.533-2.371 4.584-13.585 9.493-13.585 5.947Zm18.389-3.449c-1.692-2.738 9.864-6.976 14.774-5.418 3.577 1.136 1.186 3.087-5.055 4.125-2.792.464-5.953 1.217-7.024 1.673-1.071.457-2.284.286-2.695-.38Zm37.712-8.697c-7.795-.62-14.318-1.262-14.496-1.427-1.056-.98 1.578-4.17 4.413-5.344 2.787-1.154 4.071-1.001 7.887.94 3.719 1.894 6.117 2.209 13.026 1.71 4.657-.335 9.972-.229 11.811.236l3.343.847-4.134 2.209c-2.274 1.214-4.931 2.152-5.905 2.082-.975-.069-8.15-.633-15.945-1.253Zm339.886-4.827c-5.802-2.97-6.361-4.317-1.804-4.342 1.786-.01 4.045-.592 5.019-1.293 1.532-1.102 1.511-1.192-.151-.665-1.058.336-2.541-.009-3.297-.764-1.045-1.045-1.589-1.027-2.271.077-.632 1.022-1.928 1.143-4.38.409-6.228-1.866-7.617-2.694-7.617-4.543 0-1.566 1.562-1.71 11.221-1.03 7.356.516 11.22.373 11.22-.417 0-2.325 3.277-1.177 4.146 1.453l.878 2.657.523-2.657c.287-1.462 1.283-2.658 2.212-2.658.929 0 1.689-.638 1.689-1.417 0-1.103.315-1.103 1.418 0 .824.824 4.776 1.417 9.448 1.417 8.444 0 10.427 1.51 4.796 3.651-2.927 1.113-8.017.798-13.595-.84-1.137-.335-2.063-.174-2.059.357.008 1.09 6.644 5.1 8.44 5.1.643 0 1.915.745 2.826 1.657 1.422 1.421 1.41 1.751-.084 2.325-.958.367-1.741.094-1.741-.608 0-.824-1.502-.993-4.25-.478-2.976.558-4.008.405-3.442-.51.445-.72.167-2.083-.619-3.029-1.514-1.825-5.862-2.383-5.862-.753 0 .532-1.727 2.876-3.838 5.21l-3.839 4.244-4.987-2.553Zm-313.312-2.598c-2.047-1.202-4.944-1.55-9.448-1.136-4.211.388-7.448.054-9.201-.949-2.417-1.382-1.826-1.54 5.55-1.48 9.224.075 13.275-1.9 8.28-4.035-2.373-1.015-2.027-1.107 2.041-.544 5.31.736 7.374-.687 4.481-3.088-3.085-2.56.307-3.355 11.285-2.644 6.793.44 11.062.193 12.807-.74 3.343-1.79 2.031-4.067-1.79-3.108-2.641.663-20.967-.425-20.194-1.199.553-.552 26.517-2.957 43.566-4.035 8.843-.558 18.676-1.338 21.85-1.732L474.835 1l-9.527 4.576c-8.933 4.291-23.459 8.474-29.427 8.474-1.453 0-5.629 1.595-9.281 3.543-3.652 1.95-7.372 3.544-8.267 3.544-.896 0-4.759 1.587-8.586 3.528-3.826 1.94-6.957 3.516-6.957 3.501 0-.015-1.329-.807-2.953-1.76Zm-23.031-10.79c-5.724-1.267-5.934-1.743-1.727-3.924 6.131-3.177 11.933-3.992 14.571-2.045 2.088 1.541 1.967 1.78-2.134 4.2-4.275 2.522-6.01 2.808-10.71 1.769Z" stroke="#B2F2C4" stroke-width="2" stroke-dasharray="2 2"/>
  <g class="map-pointer">
    <path fill="none" d="M159 212h38v38h-38z"/>
    <g filter="url(#a)">
      <circle cx="178" cy="231" r="19" fill="#fff"/>
      <circle cx="178" cy="231" r="18" stroke="#CBF1D1" stroke-width="2"/>
    </g>
    <path d="M170.492 234.693a1 1 0 0 1 .033-1.286l9.635-10.879a1 1 0 0 1 1.548.062l3.678 4.897a1 1 0 0 1-.05 1.264l-9.519 10.747a1 1 0 0 1-1.531-.04l-3.794-4.765Z" fill="#9FFFB3"/>
  </g>
  <g class="map-pointer">
    <path fill="none" d="M229 82h38v38h-38z"/>
    <g filter="url(#b)">
      <circle cx="248" cy="101" r="19" fill="#fff"/>
      <circle cx="248" cy="101" r="18" stroke="#CBF1D1" stroke-width="2"/>
    </g>
    <path d="M240.492 104.693a1 1 0 0 1 .033-1.286l9.635-10.88a1 1 0 0 1 1.548.063l3.678 4.897a1 1 0 0 1-.05 1.264l-9.519 10.747a1 1 0 0 1-1.531-.04l-3.794-4.765Z" fill="#9FFFB3"/>
  </g>
  <g class="map-pointer">
    <path fill="none" d="M658 334h38v38h-38z"/>
    <g filter="url(#c)">
      <circle cx="677" cy="353" r="19" fill="#011B33"/>
      <circle cx="677" cy="353" r="18"/>
    </g>
    <g fill="#0BA4DB">
      <path d="M672.578 348h9.265c.319 0 .579.24.579.536v.953a.52.52 0 0 1-.205.409.6.6 0 0 1-.374.128h-9.265c-.319 0-.578-.242-.578-.537v-.953c0-.296.259-.536.578-.536ZM672.578 353.317h9.265c.319 0 .579.24.579.536v.953c0 .296-.26.536-.579.536h-9.265a.591.591 0 0 1-.479-.236.55.55 0 0 1-.082-.171.496.496 0 0 1-.017-.129v-.953c0-.296.259-.536.578-.536ZM677.79 355.975h-5.212c-.319 0-.578.24-.578.536v.953c0 .296.259.536.578.536h5.212c.32 0 .578-.24.578-.536v-.953c0-.296-.258-.536-.578-.536ZM672.578 350.658h9.844c.32 0 .578.24.578.536v.953c0 .296-.258.537-.578.537h-9.844c-.319 0-.578-.241-.578-.537v-.953c0-.296.259-.536.578-.536Z"/>
    </g>
  </g>
  <g class="map-pointer">
    <path fill="none" d="M773 260h38v38h-38z"/>
    <g filter="url(#d)">
      <circle cx="792" cy="279" r="19" fill="#fff"/>
      <circle cx="792" cy="279" r="18" stroke="#CBF1D1" stroke-width="2"/>
    </g>
    <path d="M784.492 282.693a1 1 0 0 1 .033-1.286l9.635-10.879a1 1 0 0 1 1.548.062l3.678 4.897a1 1 0 0 1-.05 1.264l-9.519 10.747a1 1 0 0 1-1.531-.04l-3.794-4.765Z" fill="#9FFFB3"/>
  </g>
  <g class="map-pointer">
    <path fill="none" d="M375 432h38v38h-38z"/>
    <g filter="url(#e)">
      <circle cx="394" cy="451" r="19" fill="#fff"/>
      <circle cx="394" cy="451" r="18" stroke="#CBF1D1" stroke-width="2"/>
    </g>
    <path d="M386.492 454.693a1 1 0 0 1 .033-1.286l9.635-10.879a1 1 0 0 1 1.548.062l3.678 4.897a1 1 0 0 1-.05 1.264l-9.519 10.747a1 1 0 0 1-1.531-.04l-3.794-4.765Z" fill="#9FFFB3"/>
  </g>
  <g class="map-pointer">
    <path fill="none" d="M744 531h38v38h-38z"/>
    <g filter="url(#f)">
      <circle cx="763" cy="550" r="19" fill="#fff"/>
      <circle cx="763" cy="550" r="18" stroke="#CBF1D1" stroke-width="2"/>
    </g>
    <path d="M755.492 553.693a1 1 0 0 1 .033-1.286l9.635-10.879a1 1 0 0 1 1.548.062l3.678 4.897a1 1 0 0 1-.05 1.264l-9.519 10.747a1 1 0 0 1-1.531-.04l-3.794-4.765Z" fill="#9FFFB3"/>
  </g>
  <g class="map-pointer">
    <path fill="none" d="M674 161h38v38h-38z"/>
    <g filter="url(#g)">
      <circle cx="693" cy="180" r="19" fill="#fff"/>
      <circle cx="693" cy="180" r="18" stroke="#CBF1D1" stroke-width="2"/>
    </g>
    <path d="M685.492 183.693a1 1 0 0 1 .033-1.286l9.635-10.879a1 1 0 0 1 1.548.062l3.678 4.897a1 1 0 0 1-.05 1.264l-9.519 10.747a1 1 0 0 1-1.531-.04l-3.794-4.765Z" fill="#9FFFB3"/>
  </g>
  <g class="map-pointer">
    <path fill="none" d="M1084 201h38v38h-38z"/>
    <g filter="url(#h)">
      <circle cx="1103" cy="220" r="19" fill="#fff"/>
      <circle cx="1103" cy="220" r="18" stroke="#CBF1D1" stroke-width="2"/>
    </g>
    <path d="M1095.49 223.693a.994.994 0 0 1 .04-1.286l9.63-10.879a1.002 1.002 0 0 1 1.55.062l3.68 4.897c.28.38.26.908-.05 1.264l-9.52 10.747a.999.999 0 0 1-1.53-.04l-3.8-4.765Z" fill="#9FFFB3"/>
  </g>
  <g class="map-pointer">
    <path fill="none" d="M1014 271h38v38h-38z"/>
    <g filter="url(#i)">
      <circle cx="1033" cy="290" r="19" fill="#fff"/>
      <circle cx="1033" cy="290" r="18" stroke="#CBF1D1" stroke-width="2"/>
    </g>
    <path d="M1025.49 293.693a.994.994 0 0 1 .04-1.286l9.63-10.879a1.002 1.002 0 0 1 1.55.062l3.68 4.897c.28.38.26.908-.05 1.264l-9.52 10.747a.999.999 0 0 1-1.53-.04l-3.8-4.765Z" fill="#9FFFB3"/>
  </g>
  <g class="map-pointer">
    <path fill="none" d="M754 41h38v38h-38z"/>
    <g filter="url(#j)">
      <circle cx="773" cy="60" r="19" fill="#fff"/>
      <circle cx="773" cy="60" r="18" stroke="#CBF1D1" stroke-width="2"/>
    </g>
    <path d="M765.492 63.693a1 1 0 0 1 .033-1.286l9.635-10.88a1 1 0 0 1 1.548.063l3.678 4.897a1 1 0 0 1-.05 1.264l-9.519 10.747a1 1 0 0 1-1.531-.04l-3.794-4.765Z" fill="#9FFFB3"/>
  </g>
  <defs>
    <filter id="a" x="145" y="205" width="60" height="60" filterUnits="userSpaceOnUse" color-interpolation-filters="sRGB">
      <feFlood flood-opacity="0" result="BackgroundImageFix"/>
      <feColorMatrix in="SourceAlpha" values="0 0 0 0 0 0 0 0 0 0 0 0 0 0 0 0 0 0 127 0"/>
      <feOffset dx="-3" dy="4"/>
      <feGaussianBlur stdDeviation="5.5"/>
      <feColorMatrix values="0 0 0 0 0 0 0 0 0 0 0 0 0 0 0 0 0 0 0.12 0"/>
      <feBlend in2="BackgroundImageFix" result="effect1_dropShadow"/>
      <feBlend in="SourceGraphic" in2="effect1_dropShadow" result="shape"/>
    </filter>
    <filter id="b" x="215" y="75" width="60" height="60" filterUnits="userSpaceOnUse" color-interpolation-filters="sRGB">
      <feFlood flood-opacity="0" result="BackgroundImageFix"/>
      <feColorMatrix in="SourceAlpha" values="0 0 0 0 0 0 0 0 0 0 0 0 0 0 0 0 0 0 127 0"/>
      <feOffset dx="-3" dy="4"/>
      <feGaussianBlur stdDeviation="5.5"/>
      <feColorMatrix values="0 0 0 0 0 0 0 0 0 0 0 0 0 0 0 0 0 0 0.12 0"/>
      <feBlend in2="BackgroundImageFix" result="effect1_dropShadow"/>
      <feBlend in="SourceGraphic" in2="effect1_dropShadow" result="shape"/>
    </filter>
    <filter id="c" x="644" y="327" width="60" height="60" filterUnits="userSpaceOnUse" color-interpolation-filters="sRGB">
      <feFlood flood-opacity="0" result="BackgroundImageFix"/>
      <feColorMatrix in="SourceAlpha" values="0 0 0 0 0 0 0 0 0 0 0 0 0 0 0 0 0 0 127 0"/>
      <feOffset dx="-3" dy="4"/>
      <feGaussianBlur stdDeviation="5.5"/>
      <feColorMatrix values="0 0 0 0 0 0 0 0 0 0 0 0 0 0 0 0 0 0 0.12 0"/>
      <feBlend in2="BackgroundImageFix" result="effect1_dropShadow"/>
      <feBlend in="SourceGraphic" in2="effect1_dropShadow" result="shape"/>
    </filter>
    <filter id="d" x="759" y="253" width="60" height="60" filterUnits="userSpaceOnUse" color-interpolation-filters="sRGB">
      <feFlood flood-opacity="0" result="BackgroundImageFix"/>
      <feColorMatrix in="SourceAlpha" values="0 0 0 0 0 0 0 0 0 0 0 0 0 0 0 0 0 0 127 0"/>
      <feOffset dx="-3" dy="4"/>
      <feGaussianBlur stdDeviation="5.5"/>
      <feColorMatrix values="0 0 0 0 0 0 0 0 0 0 0 0 0 0 0 0 0 0 0.12 0"/>
      <feBlend in2="BackgroundImageFix" result="effect1_dropShadow"/>
      <feBlend in="SourceGraphic" in2="effect1_dropShadow" result="shape"/>
    </filter>
    <filter id="e" x="361" y="425" width="60" height="60" filterUnits="userSpaceOnUse" color-interpolation-filters="sRGB">
      <feFlood flood-opacity="0" result="BackgroundImageFix"/>
      <feColorMatrix in="SourceAlpha" values="0 0 0 0 0 0 0 0 0 0 0 0 0 0 0 0 0 0 127 0"/>
      <feOffset dx="-3" dy="4"/>
      <feGaussianBlur stdDeviation="5.5"/>
      <feColorMatrix values="0 0 0 0 0 0 0 0 0 0 0 0 0 0 0 0 0 0 0.12 0"/>
      <feBlend in2="BackgroundImageFix" result="effect1_dropShadow"/>
      <feBlend in="SourceGraphic" in2="effect1_dropShadow" result="shape"/>
    </filter>
    <filter id="f" x="730" y="524" width="60" height="60" filterUnits="userSpaceOnUse" color-interpolation-filters="sRGB">
      <feFlood flood-opacity="0" result="BackgroundImageFix"/>
      <feColorMatrix in="SourceAlpha" values="0 0 0 0 0 0 0 0 0 0 0 0 0 0 0 0 0 0 127 0"/>
      <feOffset dx="-3" dy="4"/>
      <feGaussianBlur stdDeviation="5.5"/>
      <feColorMatrix values="0 0 0 0 0 0 0 0 0 0 0 0 0 0 0 0 0 0 0.12 0"/>
      <feBlend in2="BackgroundImageFix" result="effect1_dropShadow"/>
      <feBlend in="SourceGraphic" in2="effect1_dropShadow" result="shape"/>
    </filter>
    <filter id="g" x="660" y="154" width="60" height="60" filterUnits="userSpaceOnUse" color-interpolation-filters="sRGB">
      <feFlood flood-opacity="0" result="BackgroundImageFix"/>
      <feColorMatrix in="SourceAlpha" values="0 0 0 0 0 0 0 0 0 0 0 0 0 0 0 0 0 0 127 0"/>
      <feOffset dx="-3" dy="4"/>
      <feGaussianBlur stdDeviation="5.5"/>
      <feColorMatrix values="0 0 0 0 0 0 0 0 0 0 0 0 0 0 0 0 0 0 0.12 0"/>
      <feBlend in2="BackgroundImageFix" result="effect1_dropShadow"/>
      <feBlend in="SourceGraphic" in2="effect1_dropShadow" result="shape"/>
    </filter>
    <filter id="h" x="1070" y="194" width="60" height="60" filterUnits="userSpaceOnUse" color-interpolation-filters="sRGB">
      <feFlood flood-opacity="0" result="BackgroundImageFix"/>
      <feColorMatrix in="SourceAlpha" values="0 0 0 0 0 0 0 0 0 0 0 0 0 0 0 0 0 0 127 0"/>
      <feOffset dx="-3" dy="4"/>
      <feGaussianBlur stdDeviation="5.5"/>
      <feColorMatrix values="0 0 0 0 0 0 0 0 0 0 0 0 0 0 0 0 0 0 0.12 0"/>
      <feBlend in2="BackgroundImageFix" result="effect1_dropShadow"/>
      <feBlend in="SourceGraphic" in2="effect1_dropShadow" result="shape"/>
    </filter>
    <filter id="i" x="1000" y="264" width="60" height="60" filterUnits="userSpaceOnUse" color-interpolation-filters="sRGB">
      <feFlood flood-opacity="0" result="BackgroundImageFix"/>
      <feColorMatrix in="SourceAlpha" values="0 0 0 0 0 0 0 0 0 0 0 0 0 0 0 0 0 0 127 0"/>
      <feOffset dx="-3" dy="4"/>
      <feGaussianBlur stdDeviation="5.5"/>
      <feColorMatrix values="0 0 0 0 0 0 0 0 0 0 0 0 0 0 0 0 0 0 0.12 0"/>
      <feBlend in2="BackgroundImageFix" result="effect1_dropShadow"/>
      <feBlend in="SourceGraphic" in2="effect1_dropShadow" result="shape"/>
    </filter>
    <filter id="j" x="740" y="34" width="60" height="60" filterUnits="userSpaceOnUse" color-interpolation-filters="sRGB">
      <feFlood flood-opacity="0" result="BackgroundImageFix"/>
      <feColorMatrix in="SourceAlpha" values="0 0 0 0 0 0 0 0 0 0 0 0 0 0 0 0 0 0 127 0"/>
      <feOffset dx="-3" dy="4"/>
      <feGaussianBlur stdDeviation="5.5"/>
      <feColorMatrix values="0 0 0 0 0 0 0 0 0 0 0 0 0 0 0 0 0 0 0.12 0"/>
      <feBlend in2="BackgroundImageFix" result="effect1_dropShadow"/>
      <feBlend in="SourceGraphic" in2="effect1_dropShadow" result="shape"/>
    </filter>
  </defs>
</svg>